<mxfile host="app.diagrams.net" modified="2024-02-04T10:47:38.745Z" agent="Mozilla/5.0 (Windows NT 10.0; Win64; x64) AppleWebKit/537.36 (KHTML, like Gecko) Chrome/121.0.0.0 Safari/537.36 Edg/121.0.0.0" etag="U48t6DzgN8PYJohzTjqY" version="22.1.17" type="github" pages="3">
  <diagram name="servermanager" id="1PYGeIxA74oQ378EOJbM">
    <mxGraphModel dx="2253" dy="1920" grid="1" gridSize="10" guides="1" tooltips="1" connect="1" arrows="1" fold="1" page="1" pageScale="1" pageWidth="827" pageHeight="1169" math="0" shadow="0">
      <root>
        <mxCell id="0" />
        <mxCell id="1" parent="0" />
        <mxCell id="CSJZNhdlkeYWHEngXMV1-1" value="" style="line;strokeWidth=4;html=1;perimeter=backbonePerimeter;points=[];outlineConnect=0;" parent="1" vertex="1">
          <mxGeometry y="380" width="1060" height="10" as="geometry" />
        </mxCell>
        <mxCell id="CSJZNhdlkeYWHEngXMV1-3" value="&lt;font style=&quot;font-size: 20px;&quot;&gt;&lt;b&gt;Nacos&lt;/b&gt;&lt;/font&gt;" style="rounded=1;whiteSpace=wrap;html=1;strokeWidth=2;fillWeight=4;hachureGap=8;hachureAngle=45;fillColor=#1ba1e2;sketch=1;" parent="1" vertex="1">
          <mxGeometry x="480" y="-42" width="120" height="60" as="geometry" />
        </mxCell>
        <mxCell id="CSJZNhdlkeYWHEngXMV1-19" style="edgeStyle=orthogonalEdgeStyle;rounded=0;orthogonalLoop=1;jettySize=auto;html=1;exitX=1;exitY=0.5;exitDx=0;exitDy=0;" parent="1" source="CSJZNhdlkeYWHEngXMV1-4" target="CSJZNhdlkeYWHEngXMV1-12" edge="1">
          <mxGeometry relative="1" as="geometry" />
        </mxCell>
        <mxCell id="CSJZNhdlkeYWHEngXMV1-20" value="负载均衡" style="edgeLabel;html=1;align=center;verticalAlign=middle;resizable=0;points=[];" parent="CSJZNhdlkeYWHEngXMV1-19" vertex="1" connectable="0">
          <mxGeometry x="-0.0435" relative="1" as="geometry">
            <mxPoint as="offset" />
          </mxGeometry>
        </mxCell>
        <mxCell id="CSJZNhdlkeYWHEngXMV1-4" value="&lt;font style=&quot;font-size: 20px;&quot;&gt;&lt;b&gt;GateWay&lt;/b&gt;&lt;/font&gt;" style="rounded=1;whiteSpace=wrap;html=1;strokeWidth=2;fillWeight=4;hachureGap=8;hachureAngle=45;fillColor=#FF0000;sketch=1;" parent="1" vertex="1">
          <mxGeometry x="200" y="108" width="120" height="60" as="geometry" />
        </mxCell>
        <mxCell id="CSJZNhdlkeYWHEngXMV1-8" style="edgeStyle=orthogonalEdgeStyle;rounded=0;orthogonalLoop=1;jettySize=auto;html=1;exitX=0.5;exitY=0;exitDx=0;exitDy=0;entryX=0.5;entryY=1;entryDx=0;entryDy=0;" parent="1" source="CSJZNhdlkeYWHEngXMV1-5" target="CSJZNhdlkeYWHEngXMV1-4" edge="1">
          <mxGeometry relative="1" as="geometry" />
        </mxCell>
        <mxCell id="CSJZNhdlkeYWHEngXMV1-5" value="&lt;font style=&quot;font-size: 20px;&quot;&gt;&lt;b&gt;Nginx&lt;/b&gt;&lt;/font&gt;" style="rounded=1;whiteSpace=wrap;html=1;strokeWidth=2;fillWeight=4;hachureGap=8;hachureAngle=45;fillColor=#FFFF66;sketch=1;" parent="1" vertex="1">
          <mxGeometry x="200" y="228" width="120" height="60" as="geometry" />
        </mxCell>
        <mxCell id="CSJZNhdlkeYWHEngXMV1-10" style="edgeStyle=orthogonalEdgeStyle;rounded=0;orthogonalLoop=1;jettySize=auto;html=1;entryX=0;entryY=0.5;entryDx=0;entryDy=0;" parent="1" source="CSJZNhdlkeYWHEngXMV1-9" target="CSJZNhdlkeYWHEngXMV1-5" edge="1">
          <mxGeometry relative="1" as="geometry" />
        </mxCell>
        <mxCell id="CSJZNhdlkeYWHEngXMV1-9" value="WEB" style="ellipse;shape=doubleEllipse;whiteSpace=wrap;html=1;" parent="1" vertex="1">
          <mxGeometry y="228" width="100" height="60" as="geometry" />
        </mxCell>
        <mxCell id="CSJZNhdlkeYWHEngXMV1-11" value="" style="edgeStyle=segmentEdgeStyle;endArrow=classic;html=1;curved=0;rounded=0;endSize=8;startSize=8;entryX=0;entryY=0.5;entryDx=0;entryDy=0;exitX=0.5;exitY=0;exitDx=0;exitDy=0;" parent="1" source="CSJZNhdlkeYWHEngXMV1-4" target="CSJZNhdlkeYWHEngXMV1-3" edge="1">
          <mxGeometry width="50" height="50" relative="1" as="geometry">
            <mxPoint x="390" y="198" as="sourcePoint" />
            <mxPoint x="440" y="148" as="targetPoint" />
            <Array as="points">
              <mxPoint x="260" y="-12" />
            </Array>
          </mxGeometry>
        </mxCell>
        <mxCell id="CSJZNhdlkeYWHEngXMV1-18" value="服务注册，配置拉取" style="edgeLabel;html=1;align=center;verticalAlign=middle;resizable=0;points=[];" parent="CSJZNhdlkeYWHEngXMV1-11" vertex="1" connectable="0">
          <mxGeometry x="0.1471" y="-3" relative="1" as="geometry">
            <mxPoint as="offset" />
          </mxGeometry>
        </mxCell>
        <mxCell id="CSJZNhdlkeYWHEngXMV1-26" style="edgeStyle=orthogonalEdgeStyle;rounded=0;orthogonalLoop=1;jettySize=auto;html=1;exitX=1;exitY=0.5;exitDx=0;exitDy=0;entryX=0;entryY=0.5;entryDx=0;entryDy=0;" parent="1" source="CSJZNhdlkeYWHEngXMV1-12" target="CSJZNhdlkeYWHEngXMV1-22" edge="1">
          <mxGeometry relative="1" as="geometry" />
        </mxCell>
        <mxCell id="CSJZNhdlkeYWHEngXMV1-27" value="数据存储" style="edgeLabel;html=1;align=center;verticalAlign=middle;resizable=0;points=[];" parent="CSJZNhdlkeYWHEngXMV1-26" vertex="1" connectable="0">
          <mxGeometry x="0.28" y="2" relative="1" as="geometry">
            <mxPoint as="offset" />
          </mxGeometry>
        </mxCell>
        <mxCell id="CSJZNhdlkeYWHEngXMV1-12" value="" style="shape=ext;double=1;rounded=0;whiteSpace=wrap;html=1;" parent="1" vertex="1">
          <mxGeometry x="360" y="98" width="390" height="230" as="geometry" />
        </mxCell>
        <mxCell id="CSJZNhdlkeYWHEngXMV1-13" value="&lt;font style=&quot;font-size: 20px;&quot;&gt;&lt;b&gt;认证服务&lt;/b&gt;&lt;/font&gt;" style="rounded=1;whiteSpace=wrap;html=1;strokeWidth=2;fillWeight=4;hachureGap=8;hachureAngle=45;fillColor=#CCE5FF;sketch=1;" parent="1" vertex="1">
          <mxGeometry x="414" y="128" width="120" height="60" as="geometry" />
        </mxCell>
        <mxCell id="CSJZNhdlkeYWHEngXMV1-14" value="&lt;font style=&quot;font-size: 20px;&quot;&gt;&lt;b&gt;WEB服务&lt;/b&gt;&lt;/font&gt;" style="rounded=1;whiteSpace=wrap;html=1;strokeWidth=2;fillWeight=4;hachureGap=8;hachureAngle=45;fillColor=#CCE5FF;sketch=1;" parent="1" vertex="1">
          <mxGeometry x="414" y="248" width="120" height="60" as="geometry" />
        </mxCell>
        <mxCell id="CSJZNhdlkeYWHEngXMV1-16" style="edgeStyle=orthogonalEdgeStyle;rounded=0;orthogonalLoop=1;jettySize=auto;html=1;exitX=0.5;exitY=0;exitDx=0;exitDy=0;entryX=0.642;entryY=1.033;entryDx=0;entryDy=0;entryPerimeter=0;" parent="1" source="CSJZNhdlkeYWHEngXMV1-12" target="CSJZNhdlkeYWHEngXMV1-3" edge="1">
          <mxGeometry relative="1" as="geometry" />
        </mxCell>
        <mxCell id="CSJZNhdlkeYWHEngXMV1-17" value="服务注册，配置管理" style="edgeLabel;html=1;align=center;verticalAlign=middle;resizable=0;points=[];" parent="CSJZNhdlkeYWHEngXMV1-16" vertex="1" connectable="0">
          <mxGeometry x="0.023" y="-1" relative="1" as="geometry">
            <mxPoint as="offset" />
          </mxGeometry>
        </mxCell>
        <mxCell id="CSJZNhdlkeYWHEngXMV1-21" value="&lt;font style=&quot;font-size: 20px;&quot;&gt;&lt;b&gt;UDP服务&lt;/b&gt;&lt;/font&gt;" style="rounded=1;whiteSpace=wrap;html=1;strokeWidth=2;fillWeight=4;hachureGap=8;hachureAngle=45;fillColor=#CCE5FF;sketch=1;" parent="1" vertex="1">
          <mxGeometry x="590" y="248" width="120" height="60" as="geometry" />
        </mxCell>
        <mxCell id="CSJZNhdlkeYWHEngXMV1-22" value="" style="shape=ext;double=1;rounded=1;whiteSpace=wrap;html=1;" parent="1" vertex="1">
          <mxGeometry x="820" y="28" width="150" height="310" as="geometry" />
        </mxCell>
        <mxCell id="CSJZNhdlkeYWHEngXMV1-23" value="Mysql" style="strokeWidth=2;html=1;shape=mxgraph.flowchart.database;whiteSpace=wrap;fillColor=#994C00;" parent="1" vertex="1">
          <mxGeometry x="865" y="48" width="60" height="60" as="geometry" />
        </mxCell>
        <mxCell id="CSJZNhdlkeYWHEngXMV1-24" value="Redis" style="strokeWidth=2;html=1;shape=mxgraph.flowchart.database;whiteSpace=wrap;fillColor=#FF9933;" parent="1" vertex="1">
          <mxGeometry x="865" y="148" width="60" height="60" as="geometry" />
        </mxCell>
        <mxCell id="CSJZNhdlkeYWHEngXMV1-29" value="" style="shape=ext;double=1;rounded=0;whiteSpace=wrap;html=1;" parent="1" vertex="1">
          <mxGeometry x="250" y="450" width="790" height="290" as="geometry" />
        </mxCell>
        <mxCell id="CSJZNhdlkeYWHEngXMV1-36" style="edgeStyle=orthogonalEdgeStyle;rounded=0;orthogonalLoop=1;jettySize=auto;html=1;exitX=1;exitY=0.5;exitDx=0;exitDy=0;" parent="1" source="CSJZNhdlkeYWHEngXMV1-31" target="CSJZNhdlkeYWHEngXMV1-34" edge="1">
          <mxGeometry relative="1" as="geometry" />
        </mxCell>
        <mxCell id="CSJZNhdlkeYWHEngXMV1-31" value="&lt;font style=&quot;font-size: 20px;&quot;&gt;&lt;b&gt;数据通信模块&lt;/b&gt;&lt;/font&gt;" style="rounded=1;whiteSpace=wrap;html=1;strokeWidth=2;fillWeight=4;hachureGap=8;hachureAngle=45;fillColor=#CCE5FF;sketch=1;" parent="1" vertex="1">
          <mxGeometry x="280" y="480" width="160" height="60" as="geometry" />
        </mxCell>
        <mxCell id="CSJZNhdlkeYWHEngXMV1-43" style="edgeStyle=orthogonalEdgeStyle;rounded=0;orthogonalLoop=1;jettySize=auto;html=1;entryX=0.5;entryY=1;entryDx=0;entryDy=0;" parent="1" source="CSJZNhdlkeYWHEngXMV1-32" target="CSJZNhdlkeYWHEngXMV1-31" edge="1">
          <mxGeometry relative="1" as="geometry" />
        </mxCell>
        <mxCell id="CSJZNhdlkeYWHEngXMV1-32" value="&lt;font style=&quot;font-size: 20px;&quot;&gt;&lt;b&gt;数据采集模块&lt;/b&gt;&lt;/font&gt;" style="rounded=1;whiteSpace=wrap;html=1;strokeWidth=2;fillWeight=4;hachureGap=8;hachureAngle=45;fillColor=#CCE5FF;sketch=1;" parent="1" vertex="1">
          <mxGeometry x="280" y="600" width="160" height="60" as="geometry" />
        </mxCell>
        <mxCell id="CSJZNhdlkeYWHEngXMV1-33" value="&lt;font style=&quot;font-size: 20px;&quot;&gt;&lt;b&gt;阻断策略模块&lt;/b&gt;&lt;/font&gt;" style="rounded=1;whiteSpace=wrap;html=1;strokeWidth=2;fillWeight=4;hachureGap=8;hachureAngle=45;fillColor=#CCE5FF;sketch=1;" parent="1" vertex="1">
          <mxGeometry x="560" y="600" width="160" height="60" as="geometry" />
        </mxCell>
        <mxCell id="CSJZNhdlkeYWHEngXMV1-40" style="edgeStyle=orthogonalEdgeStyle;rounded=0;orthogonalLoop=1;jettySize=auto;html=1;" parent="1" source="CSJZNhdlkeYWHEngXMV1-34" target="CSJZNhdlkeYWHEngXMV1-32" edge="1">
          <mxGeometry relative="1" as="geometry">
            <Array as="points">
              <mxPoint x="800" y="510" />
              <mxPoint x="800" y="710" />
              <mxPoint x="360" y="710" />
            </Array>
          </mxGeometry>
        </mxCell>
        <mxCell id="CSJZNhdlkeYWHEngXMV1-41" style="edgeStyle=orthogonalEdgeStyle;rounded=0;orthogonalLoop=1;jettySize=auto;html=1;" parent="1" source="CSJZNhdlkeYWHEngXMV1-34" target="CSJZNhdlkeYWHEngXMV1-33" edge="1">
          <mxGeometry relative="1" as="geometry" />
        </mxCell>
        <mxCell id="CSJZNhdlkeYWHEngXMV1-34" value="&lt;font style=&quot;font-size: 20px;&quot;&gt;&lt;b&gt;策略管理模块&lt;/b&gt;&lt;/font&gt;" style="rounded=1;whiteSpace=wrap;html=1;strokeWidth=2;fillWeight=4;hachureGap=8;hachureAngle=45;fillColor=#CCE5FF;sketch=1;" parent="1" vertex="1">
          <mxGeometry x="620" y="480" width="160" height="60" as="geometry" />
        </mxCell>
        <mxCell id="CSJZNhdlkeYWHEngXMV1-35" style="edgeStyle=orthogonalEdgeStyle;rounded=0;orthogonalLoop=1;jettySize=auto;html=1;entryX=0.459;entryY=1.015;entryDx=0;entryDy=0;entryPerimeter=0;" parent="1" source="CSJZNhdlkeYWHEngXMV1-31" target="CSJZNhdlkeYWHEngXMV1-12" edge="1">
          <mxGeometry relative="1" as="geometry">
            <Array as="points">
              <mxPoint x="360" y="420" />
              <mxPoint x="539" y="420" />
            </Array>
          </mxGeometry>
        </mxCell>
        <mxCell id="CSJZNhdlkeYWHEngXMV1-38" value="&lt;font style=&quot;font-size: 20px;&quot;&gt;&lt;b&gt;进程防护模块&lt;/b&gt;&lt;/font&gt;" style="rounded=1;whiteSpace=wrap;html=1;strokeWidth=2;fillWeight=4;hachureGap=8;hachureAngle=45;fillColor=#CCE5FF;sketch=1;" parent="1" vertex="1">
          <mxGeometry x="840" y="555" width="160" height="60" as="geometry" />
        </mxCell>
      </root>
    </mxGraphModel>
  </diagram>
  <diagram id="IbFVT262c5bF1gaME0Jv" name="sales-ai-platform">
    <mxGraphModel dx="1426" dy="1920" grid="1" gridSize="10" guides="1" tooltips="1" connect="1" arrows="1" fold="1" page="1" pageScale="1" pageWidth="827" pageHeight="1169" math="0" shadow="0">
      <root>
        <mxCell id="0" />
        <mxCell id="1" parent="0" />
        <mxCell id="iVl9TwdQRO9iKu7pUTu9-1" value="" style="rounded=1;whiteSpace=wrap;html=1;strokeWidth=2;fillWeight=4;hachureGap=8;hachureAngle=45;fillColor=#99FF99;sketch=1;strokeColor=default;align=center;verticalAlign=middle;fontFamily=Helvetica;fontSize=12;fontColor=default;" parent="1" vertex="1">
          <mxGeometry x="677" y="-20" width="140" height="110" as="geometry" />
        </mxCell>
        <mxCell id="2zUQig4dvbc7xnsySpAz-34" style="edgeStyle=orthogonalEdgeStyle;rounded=0;orthogonalLoop=1;jettySize=auto;html=1;entryX=0.5;entryY=1;entryDx=0;entryDy=0;fontFamily=Helvetica;fontSize=12;fontColor=default;shape=flexArrow;" parent="1" target="2zUQig4dvbc7xnsySpAz-30" edge="1">
          <mxGeometry relative="1" as="geometry">
            <mxPoint x="640" y="140" as="sourcePoint" />
          </mxGeometry>
        </mxCell>
        <mxCell id="2zUQig4dvbc7xnsySpAz-38" style="rounded=0;orthogonalLoop=1;jettySize=auto;html=1;exitX=0.5;exitY=1;exitDx=0;exitDy=0;entryX=1;entryY=0.5;entryDx=0;entryDy=0;fontFamily=Helvetica;fontSize=12;fontColor=default;" parent="1" source="2zUQig4dvbc7xnsySpAz-13" target="2zUQig4dvbc7xnsySpAz-35" edge="1">
          <mxGeometry relative="1" as="geometry" />
        </mxCell>
        <mxCell id="2zUQig4dvbc7xnsySpAz-39" value="log" style="edgeLabel;html=1;align=center;verticalAlign=middle;resizable=0;points=[];fontSize=12;fontFamily=Helvetica;fontColor=default;" parent="2zUQig4dvbc7xnsySpAz-38" vertex="1" connectable="0">
          <mxGeometry x="0.0588" y="5" relative="1" as="geometry">
            <mxPoint as="offset" />
          </mxGeometry>
        </mxCell>
        <mxCell id="2zUQig4dvbc7xnsySpAz-49" style="edgeStyle=orthogonalEdgeStyle;rounded=0;orthogonalLoop=1;jettySize=auto;html=1;exitX=1;exitY=0.5;exitDx=0;exitDy=0;fontFamily=Helvetica;fontSize=12;fontColor=default;" parent="1" source="2zUQig4dvbc7xnsySpAz-13" target="2zUQig4dvbc7xnsySpAz-48" edge="1">
          <mxGeometry relative="1" as="geometry">
            <Array as="points">
              <mxPoint x="1010" y="400" />
            </Array>
          </mxGeometry>
        </mxCell>
        <mxCell id="2zUQig4dvbc7xnsySpAz-58" style="edgeStyle=orthogonalEdgeStyle;rounded=0;orthogonalLoop=1;jettySize=auto;html=1;exitX=1;exitY=0.25;exitDx=0;exitDy=0;entryX=0;entryY=0.5;entryDx=0;entryDy=0;fontFamily=Helvetica;fontSize=12;fontColor=default;" parent="1" source="2zUQig4dvbc7xnsySpAz-13" target="2zUQig4dvbc7xnsySpAz-51" edge="1">
          <mxGeometry relative="1" as="geometry">
            <Array as="points">
              <mxPoint x="1010" y="220" />
            </Array>
          </mxGeometry>
        </mxCell>
        <mxCell id="2zUQig4dvbc7xnsySpAz-13" value="" style="rounded=1;whiteSpace=wrap;html=1;strokeWidth=2;fillWeight=4;hachureGap=8;hachureAngle=45;fillColor=#1ba1e2;sketch=1;" parent="1" vertex="1">
          <mxGeometry x="570" y="140" width="440" height="300" as="geometry" />
        </mxCell>
        <mxCell id="2zUQig4dvbc7xnsySpAz-4" style="edgeStyle=orthogonalEdgeStyle;rounded=0;orthogonalLoop=1;jettySize=auto;html=1;exitX=1;exitY=0.5;exitDx=0;exitDy=0;entryX=0;entryY=0.5;entryDx=0;entryDy=0;" parent="1" source="2zUQig4dvbc7xnsySpAz-2" target="2zUQig4dvbc7xnsySpAz-3" edge="1">
          <mxGeometry relative="1" as="geometry" />
        </mxCell>
        <mxCell id="2zUQig4dvbc7xnsySpAz-2" value="web" style="ellipse;shape=doubleEllipse;whiteSpace=wrap;html=1;" parent="1" vertex="1">
          <mxGeometry x="21" y="259" width="100" height="60" as="geometry" />
        </mxCell>
        <mxCell id="2zUQig4dvbc7xnsySpAz-9" style="edgeStyle=orthogonalEdgeStyle;rounded=0;orthogonalLoop=1;jettySize=auto;html=1;entryX=0;entryY=0.5;entryDx=0;entryDy=0;" parent="1" source="2zUQig4dvbc7xnsySpAz-3" target="2zUQig4dvbc7xnsySpAz-8" edge="1">
          <mxGeometry relative="1" as="geometry" />
        </mxCell>
        <mxCell id="2zUQig4dvbc7xnsySpAz-3" value="web application firewall" style="rounded=1;whiteSpace=wrap;html=1;strokeWidth=2;fillWeight=4;hachureGap=8;hachureAngle=45;fillColor=#E6E6E6;sketch=1;" parent="1" vertex="1">
          <mxGeometry x="191" y="259" width="120" height="60" as="geometry" />
        </mxCell>
        <mxCell id="2zUQig4dvbc7xnsySpAz-6" style="edgeStyle=orthogonalEdgeStyle;rounded=0;orthogonalLoop=1;jettySize=auto;html=1;exitX=1;exitY=0.5;exitDx=0;exitDy=0;" parent="1" source="2zUQig4dvbc7xnsySpAz-5" target="2zUQig4dvbc7xnsySpAz-3" edge="1">
          <mxGeometry relative="1" as="geometry" />
        </mxCell>
        <mxCell id="2zUQig4dvbc7xnsySpAz-5" value="win client" style="ellipse;shape=doubleEllipse;whiteSpace=wrap;html=1;" parent="1" vertex="1">
          <mxGeometry x="21" y="349" width="100" height="60" as="geometry" />
        </mxCell>
        <mxCell id="2zUQig4dvbc7xnsySpAz-16" style="edgeStyle=orthogonalEdgeStyle;rounded=0;orthogonalLoop=1;jettySize=auto;html=1;exitX=1;exitY=0.5;exitDx=0;exitDy=0;entryX=0;entryY=0.5;entryDx=0;entryDy=0;fontFamily=Helvetica;fontSize=12;fontColor=default;" parent="1" source="2zUQig4dvbc7xnsySpAz-8" target="2zUQig4dvbc7xnsySpAz-14" edge="1">
          <mxGeometry relative="1" as="geometry" />
        </mxCell>
        <mxCell id="2zUQig4dvbc7xnsySpAz-36" style="edgeStyle=orthogonalEdgeStyle;rounded=0;orthogonalLoop=1;jettySize=auto;html=1;fontFamily=Helvetica;fontSize=12;fontColor=default;" parent="1" source="2zUQig4dvbc7xnsySpAz-8" target="2zUQig4dvbc7xnsySpAz-35" edge="1">
          <mxGeometry relative="1" as="geometry" />
        </mxCell>
        <mxCell id="2zUQig4dvbc7xnsySpAz-37" value="log" style="edgeLabel;html=1;align=center;verticalAlign=middle;resizable=0;points=[];fontSize=12;fontFamily=Helvetica;fontColor=default;" parent="2zUQig4dvbc7xnsySpAz-36" vertex="1" connectable="0">
          <mxGeometry x="-0.16" y="4" relative="1" as="geometry">
            <mxPoint as="offset" />
          </mxGeometry>
        </mxCell>
        <mxCell id="2zUQig4dvbc7xnsySpAz-61" style="edgeStyle=orthogonalEdgeStyle;rounded=0;orthogonalLoop=1;jettySize=auto;html=1;fontFamily=Helvetica;fontSize=12;fontColor=default;" parent="1" source="2zUQig4dvbc7xnsySpAz-8" target="2zUQig4dvbc7xnsySpAz-10" edge="1">
          <mxGeometry relative="1" as="geometry">
            <Array as="points">
              <mxPoint x="540" y="289" />
              <mxPoint x="540" y="200" />
            </Array>
          </mxGeometry>
        </mxCell>
        <mxCell id="2zUQig4dvbc7xnsySpAz-8" value="Nginx网关" style="shape=ext;double=1;rounded=1;whiteSpace=wrap;html=1;" parent="1" vertex="1">
          <mxGeometry x="391" y="259" width="120" height="60" as="geometry" />
        </mxCell>
        <mxCell id="2zUQig4dvbc7xnsySpAz-10" value="vue admin" style="shape=ext;double=1;rounded=1;whiteSpace=wrap;html=1;" parent="1" vertex="1">
          <mxGeometry x="600" y="170" width="120" height="60" as="geometry" />
        </mxCell>
        <mxCell id="2zUQig4dvbc7xnsySpAz-14" value="Java web server" style="shape=ext;double=1;rounded=1;whiteSpace=wrap;html=1;" parent="1" vertex="1">
          <mxGeometry x="600" y="259" width="120" height="60" as="geometry" />
        </mxCell>
        <mxCell id="2zUQig4dvbc7xnsySpAz-21" style="edgeStyle=orthogonalEdgeStyle;rounded=0;orthogonalLoop=1;jettySize=auto;html=1;exitX=1;exitY=0.5;exitDx=0;exitDy=0;entryX=0;entryY=0.5;entryDx=0;entryDy=0;fontFamily=Helvetica;fontSize=12;fontColor=default;" parent="1" source="2zUQig4dvbc7xnsySpAz-15" target="2zUQig4dvbc7xnsySpAz-20" edge="1">
          <mxGeometry relative="1" as="geometry" />
        </mxCell>
        <mxCell id="2zUQig4dvbc7xnsySpAz-15" value="voicecollect api" style="shape=ext;double=1;rounded=1;whiteSpace=wrap;html=1;" parent="1" vertex="1">
          <mxGeometry x="600" y="350" width="120" height="60" as="geometry" />
        </mxCell>
        <mxCell id="2zUQig4dvbc7xnsySpAz-17" style="edgeStyle=orthogonalEdgeStyle;rounded=0;orthogonalLoop=1;jettySize=auto;html=1;entryX=-0.008;entryY=0.65;entryDx=0;entryDy=0;entryPerimeter=0;fontFamily=Helvetica;fontSize=12;fontColor=default;" parent="1" source="2zUQig4dvbc7xnsySpAz-8" target="2zUQig4dvbc7xnsySpAz-15" edge="1">
          <mxGeometry relative="1" as="geometry">
            <Array as="points">
              <mxPoint x="540" y="289" />
              <mxPoint x="540" y="389" />
            </Array>
          </mxGeometry>
        </mxCell>
        <mxCell id="2zUQig4dvbc7xnsySpAz-25" style="edgeStyle=orthogonalEdgeStyle;rounded=0;orthogonalLoop=1;jettySize=auto;html=1;fontFamily=Helvetica;fontSize=12;fontColor=default;" parent="1" source="2zUQig4dvbc7xnsySpAz-20" target="2zUQig4dvbc7xnsySpAz-24" edge="1">
          <mxGeometry relative="1" as="geometry" />
        </mxCell>
        <mxCell id="2zUQig4dvbc7xnsySpAz-20" value="voicecollect rpc" style="shape=ext;double=1;rounded=1;whiteSpace=wrap;html=1;" parent="1" vertex="1">
          <mxGeometry x="820" y="350" width="120" height="60" as="geometry" />
        </mxCell>
        <mxCell id="2zUQig4dvbc7xnsySpAz-24" value="voiceWhisper rpc" style="shape=ext;double=1;rounded=1;whiteSpace=wrap;html=1;" parent="1" vertex="1">
          <mxGeometry x="820" y="210" width="120" height="60" as="geometry" />
        </mxCell>
        <mxCell id="2zUQig4dvbc7xnsySpAz-26" value="voicecollect rpc" style="shape=ext;double=1;rounded=1;whiteSpace=wrap;html=1;" parent="1" vertex="1">
          <mxGeometry x="827" y="340" width="120" height="60" as="geometry" />
        </mxCell>
        <mxCell id="2zUQig4dvbc7xnsySpAz-27" value="voiceWhisper rpc" style="shape=ext;double=1;rounded=1;whiteSpace=wrap;html=1;" parent="1" vertex="1">
          <mxGeometry x="827" y="200" width="120" height="60" as="geometry" />
        </mxCell>
        <mxCell id="2zUQig4dvbc7xnsySpAz-28" value="voicecollect rpc" style="shape=ext;double=1;rounded=1;whiteSpace=wrap;html=1;" parent="1" vertex="1">
          <mxGeometry x="840" y="330" width="120" height="60" as="geometry" />
        </mxCell>
        <mxCell id="2zUQig4dvbc7xnsySpAz-29" value="voiceWhisper rpc" style="shape=ext;double=1;rounded=1;whiteSpace=wrap;html=1;" parent="1" vertex="1">
          <mxGeometry x="840" y="190" width="120" height="60" as="geometry" />
        </mxCell>
        <mxCell id="2zUQig4dvbc7xnsySpAz-30" value="" style="rounded=1;whiteSpace=wrap;html=1;strokeWidth=2;fillWeight=4;hachureGap=8;hachureAngle=45;fillColor=#FF3333;sketch=1;strokeColor=default;align=center;verticalAlign=middle;fontFamily=Helvetica;fontSize=12;fontColor=default;" parent="1" vertex="1">
          <mxGeometry x="377" y="-20" width="280" height="110" as="geometry" />
        </mxCell>
        <mxCell id="2zUQig4dvbc7xnsySpAz-31" value="Mysql cluster" style="shape=ext;double=1;rounded=1;whiteSpace=wrap;html=1;" parent="1" vertex="1">
          <mxGeometry x="387" y="5" width="120" height="60" as="geometry" />
        </mxCell>
        <mxCell id="2zUQig4dvbc7xnsySpAz-32" value="Redis cluster" style="shape=ext;double=1;rounded=1;whiteSpace=wrap;html=1;" parent="1" vertex="1">
          <mxGeometry x="687" y="5" width="120" height="60" as="geometry" />
        </mxCell>
        <mxCell id="2zUQig4dvbc7xnsySpAz-44" style="edgeStyle=orthogonalEdgeStyle;rounded=0;orthogonalLoop=1;jettySize=auto;html=1;fontFamily=Helvetica;fontSize=12;fontColor=default;" parent="1" source="2zUQig4dvbc7xnsySpAz-35" target="2zUQig4dvbc7xnsySpAz-40" edge="1">
          <mxGeometry relative="1" as="geometry" />
        </mxCell>
        <mxCell id="2zUQig4dvbc7xnsySpAz-35" value="filebeat" style="shape=ext;double=1;rounded=1;whiteSpace=wrap;html=1;" parent="1" vertex="1">
          <mxGeometry x="390" y="451" width="120" height="60" as="geometry" />
        </mxCell>
        <mxCell id="2zUQig4dvbc7xnsySpAz-45" style="edgeStyle=orthogonalEdgeStyle;rounded=0;orthogonalLoop=1;jettySize=auto;html=1;fontFamily=Helvetica;fontSize=12;fontColor=default;" parent="1" source="2zUQig4dvbc7xnsySpAz-40" edge="1">
          <mxGeometry relative="1" as="geometry">
            <mxPoint x="620" y="601" as="targetPoint" />
          </mxGeometry>
        </mxCell>
        <mxCell id="2zUQig4dvbc7xnsySpAz-40" value="kafka" style="shape=ext;double=1;rounded=1;whiteSpace=wrap;html=1;" parent="1" vertex="1">
          <mxGeometry x="390" y="571" width="120" height="60" as="geometry" />
        </mxCell>
        <mxCell id="2zUQig4dvbc7xnsySpAz-46" style="edgeStyle=orthogonalEdgeStyle;rounded=0;orthogonalLoop=1;jettySize=auto;html=1;entryX=0;entryY=0.5;entryDx=0;entryDy=0;fontFamily=Helvetica;fontSize=12;fontColor=default;" parent="1" source="2zUQig4dvbc7xnsySpAz-41" target="2zUQig4dvbc7xnsySpAz-42" edge="1">
          <mxGeometry relative="1" as="geometry" />
        </mxCell>
        <mxCell id="2zUQig4dvbc7xnsySpAz-55" value="store" style="edgeLabel;html=1;align=center;verticalAlign=middle;resizable=0;points=[];fontSize=12;fontFamily=Helvetica;fontColor=default;" parent="2zUQig4dvbc7xnsySpAz-46" vertex="1" connectable="0">
          <mxGeometry x="0.1371" relative="1" as="geometry">
            <mxPoint as="offset" />
          </mxGeometry>
        </mxCell>
        <mxCell id="2zUQig4dvbc7xnsySpAz-41" value="go-stash" style="shape=ext;double=1;rounded=1;whiteSpace=wrap;html=1;" parent="1" vertex="1">
          <mxGeometry x="630" y="571" width="120" height="60" as="geometry" />
        </mxCell>
        <mxCell id="2zUQig4dvbc7xnsySpAz-47" style="edgeStyle=orthogonalEdgeStyle;rounded=0;orthogonalLoop=1;jettySize=auto;html=1;exitX=1;exitY=0.5;exitDx=0;exitDy=0;entryX=0;entryY=0.5;entryDx=0;entryDy=0;fontFamily=Helvetica;fontSize=12;fontColor=default;" parent="1" source="2zUQig4dvbc7xnsySpAz-42" target="2zUQig4dvbc7xnsySpAz-43" edge="1">
          <mxGeometry relative="1" as="geometry" />
        </mxCell>
        <mxCell id="2zUQig4dvbc7xnsySpAz-42" value="ES" style="shape=ext;double=1;rounded=1;whiteSpace=wrap;html=1;" parent="1" vertex="1">
          <mxGeometry x="1100" y="571" width="120" height="60" as="geometry" />
        </mxCell>
        <mxCell id="2zUQig4dvbc7xnsySpAz-43" value="kibana" style="shape=ext;double=1;rounded=1;whiteSpace=wrap;html=1;" parent="1" vertex="1">
          <mxGeometry x="1330" y="571" width="120" height="60" as="geometry" />
        </mxCell>
        <mxCell id="2zUQig4dvbc7xnsySpAz-50" style="edgeStyle=orthogonalEdgeStyle;rounded=0;orthogonalLoop=1;jettySize=auto;html=1;exitX=0.5;exitY=1;exitDx=0;exitDy=0;fontFamily=Helvetica;fontSize=12;fontColor=default;" parent="1" source="2zUQig4dvbc7xnsySpAz-48" target="2zUQig4dvbc7xnsySpAz-42" edge="1">
          <mxGeometry relative="1" as="geometry">
            <Array as="points">
              <mxPoint x="1110" y="560" />
              <mxPoint x="1110" y="560" />
            </Array>
          </mxGeometry>
        </mxCell>
        <mxCell id="2zUQig4dvbc7xnsySpAz-54" value="store" style="edgeLabel;html=1;align=center;verticalAlign=middle;resizable=0;points=[];fontSize=12;fontFamily=Helvetica;fontColor=default;" parent="2zUQig4dvbc7xnsySpAz-50" vertex="1" connectable="0">
          <mxGeometry x="-0.2706" relative="1" as="geometry">
            <mxPoint as="offset" />
          </mxGeometry>
        </mxCell>
        <mxCell id="2zUQig4dvbc7xnsySpAz-48" value="jaeger" style="shape=ext;double=1;rounded=1;whiteSpace=wrap;html=1;" parent="1" vertex="1">
          <mxGeometry x="1050" y="370" width="120" height="60" as="geometry" />
        </mxCell>
        <mxCell id="2zUQig4dvbc7xnsySpAz-52" style="edgeStyle=orthogonalEdgeStyle;rounded=0;orthogonalLoop=1;jettySize=auto;html=1;entryX=0.75;entryY=0;entryDx=0;entryDy=0;fontFamily=Helvetica;fontSize=12;fontColor=default;" parent="1" source="2zUQig4dvbc7xnsySpAz-51" target="2zUQig4dvbc7xnsySpAz-42" edge="1">
          <mxGeometry relative="1" as="geometry" />
        </mxCell>
        <mxCell id="2zUQig4dvbc7xnsySpAz-53" value="store" style="edgeLabel;html=1;align=center;verticalAlign=middle;resizable=0;points=[];fontSize=12;fontFamily=Helvetica;fontColor=default;" parent="2zUQig4dvbc7xnsySpAz-52" vertex="1" connectable="0">
          <mxGeometry x="-0.24" y="-2" relative="1" as="geometry">
            <mxPoint as="offset" />
          </mxGeometry>
        </mxCell>
        <mxCell id="2zUQig4dvbc7xnsySpAz-57" style="edgeStyle=orthogonalEdgeStyle;rounded=0;orthogonalLoop=1;jettySize=auto;html=1;exitX=1;exitY=0.5;exitDx=0;exitDy=0;entryX=0;entryY=0.5;entryDx=0;entryDy=0;fontFamily=Helvetica;fontSize=12;fontColor=default;" parent="1" source="2zUQig4dvbc7xnsySpAz-51" target="2zUQig4dvbc7xnsySpAz-56" edge="1">
          <mxGeometry relative="1" as="geometry" />
        </mxCell>
        <mxCell id="2zUQig4dvbc7xnsySpAz-51" value="prometheus" style="shape=ext;double=1;rounded=1;whiteSpace=wrap;html=1;" parent="1" vertex="1">
          <mxGeometry x="1130" y="190" width="120" height="60" as="geometry" />
        </mxCell>
        <mxCell id="2zUQig4dvbc7xnsySpAz-56" value="grafana" style="shape=ext;double=1;rounded=1;whiteSpace=wrap;html=1;" parent="1" vertex="1">
          <mxGeometry x="1330" y="190" width="120" height="60" as="geometry" />
        </mxCell>
        <mxCell id="WwXnekM5IQcEiYFf52a1-1" value="Doris cluster" style="shape=ext;double=1;rounded=1;whiteSpace=wrap;html=1;" parent="1" vertex="1">
          <mxGeometry x="527" y="5" width="120" height="60" as="geometry" />
        </mxCell>
        <mxCell id="iVl9TwdQRO9iKu7pUTu9-2" value="" style="rounded=1;whiteSpace=wrap;html=1;strokeWidth=2;fillWeight=4;hachureGap=8;hachureAngle=45;fillColor=#FFD966;sketch=1;strokeColor=default;align=center;verticalAlign=middle;fontFamily=Helvetica;fontSize=12;fontColor=default;" parent="1" vertex="1">
          <mxGeometry x="837" y="-20" width="140" height="110" as="geometry" />
        </mxCell>
        <mxCell id="iVl9TwdQRO9iKu7pUTu9-3" value="Kafka cluster" style="shape=ext;double=1;rounded=1;whiteSpace=wrap;html=1;" parent="1" vertex="1">
          <mxGeometry x="847" y="5" width="120" height="60" as="geometry" />
        </mxCell>
        <mxCell id="iVl9TwdQRO9iKu7pUTu9-4" style="edgeStyle=orthogonalEdgeStyle;rounded=0;orthogonalLoop=1;jettySize=auto;html=1;fontFamily=Helvetica;fontSize=12;fontColor=default;shape=flexArrow;" parent="1" source="2zUQig4dvbc7xnsySpAz-13" target="iVl9TwdQRO9iKu7pUTu9-1" edge="1">
          <mxGeometry relative="1" as="geometry">
            <mxPoint x="869.5" y="140" as="sourcePoint" />
            <mxPoint x="799.5" y="90" as="targetPoint" />
          </mxGeometry>
        </mxCell>
        <mxCell id="iVl9TwdQRO9iKu7pUTu9-5" style="edgeStyle=orthogonalEdgeStyle;rounded=0;orthogonalLoop=1;jettySize=auto;html=1;entryX=0.5;entryY=1;entryDx=0;entryDy=0;fontFamily=Helvetica;fontSize=12;fontColor=default;shape=flexArrow;exitX=0.807;exitY=0;exitDx=0;exitDy=0;exitPerimeter=0;" parent="1" source="2zUQig4dvbc7xnsySpAz-13" target="iVl9TwdQRO9iKu7pUTu9-2" edge="1">
          <mxGeometry relative="1" as="geometry">
            <mxPoint x="1040" y="130" as="sourcePoint" />
            <mxPoint x="1049.5" y="80" as="targetPoint" />
          </mxGeometry>
        </mxCell>
        <mxCell id="XE9evPeOTX6LFxkjG_8L-1" value="" style="rounded=1;whiteSpace=wrap;html=1;strokeWidth=2;fillWeight=4;hachureGap=8;hachureAngle=45;fillColor=#97D077;sketch=1;strokeColor=default;align=center;verticalAlign=middle;fontFamily=Helvetica;fontSize=12;fontColor=default;" parent="1" vertex="1">
          <mxGeometry x="1004" y="-20" width="140" height="110" as="geometry" />
        </mxCell>
        <mxCell id="XE9evPeOTX6LFxkjG_8L-2" value="Minio cluster" style="shape=ext;double=1;rounded=1;whiteSpace=wrap;html=1;" parent="1" vertex="1">
          <mxGeometry x="1014" y="5" width="120" height="60" as="geometry" />
        </mxCell>
        <mxCell id="XE9evPeOTX6LFxkjG_8L-3" style="edgeStyle=orthogonalEdgeStyle;rounded=0;orthogonalLoop=1;jettySize=auto;html=1;entryX=0.5;entryY=1;entryDx=0;entryDy=0;fontFamily=Helvetica;fontSize=12;fontColor=default;shape=flexArrow;exitX=0.88;exitY=0;exitDx=0;exitDy=0;exitPerimeter=0;" parent="1" source="2zUQig4dvbc7xnsySpAz-13" target="XE9evPeOTX6LFxkjG_8L-1" edge="1">
          <mxGeometry relative="1" as="geometry">
            <mxPoint x="935" y="150" as="sourcePoint" />
            <mxPoint x="970" y="100" as="targetPoint" />
          </mxGeometry>
        </mxCell>
      </root>
    </mxGraphModel>
  </diagram>
  <diagram id="fgsMROn51Y4y_Ezy1Blr" name="第 3 页">
    <mxGraphModel dx="1547" dy="2470" grid="1" gridSize="10" guides="1" tooltips="1" connect="1" arrows="1" fold="1" page="1" pageScale="1" pageWidth="827" pageHeight="1169" math="0" shadow="0">
      <root>
        <mxCell id="0" />
        <mxCell id="1" parent="0" />
        <mxCell id="kKnEaFU982FH7cg9OtYn-11" style="edgeStyle=orthogonalEdgeStyle;rounded=0;orthogonalLoop=1;jettySize=auto;html=1;exitX=1;exitY=0.5;exitDx=0;exitDy=0;strokeColor=default;curved=1;endArrow=none;endFill=0;" edge="1" parent="1" source="kKnEaFU982FH7cg9OtYn-2" target="kKnEaFU982FH7cg9OtYn-3">
          <mxGeometry relative="1" as="geometry" />
        </mxCell>
        <mxCell id="kKnEaFU982FH7cg9OtYn-2" value="" style="shape=image;verticalLabelPosition=bottom;labelBackgroundColor=default;verticalAlign=top;aspect=fixed;imageAspect=0;image=data:image/png,iVBORw0KGgoAAAANSUhEUgAAAEAAAABDCAYAAAAs/QNwAAAJ6ElEQVR4Ae2b9csUXRTH/bfs7k7sbgxsMbHFbrEQ/EEwsQuxE+MHE7sbu/PI5/CeZZ/dmb13Zmd55Xn2wjD7zNw453v63nnKSRlv5co4/1IEoKgBZRyBogmUcQUoOsF/zgS+ffsmx44dkw0bNsjy5ctl1qxZMn/+fFm3bp0cPXpUnj59mqjS/lMA/PnzRxmuWLGiVK9eXapVq6Z3fnPVrFlTWrRoIaNHj5YDBw7Iz58/8wajYAD8+vVLXrx4IY8ePZKHDx/K8+fP5cePHzkJZkz79u2ldu3a0qRJE2ncuLE0atRI7/zN1bBhQwUCQPr16yfnzp3LOafrZaIAwOTOnTtl5syZ0rdvX2ndurUSDeGtWrWSXr16yeTJk2Xr1q3y4MGDQNoWLlwoFSpUUOnXrVtXAahXr55qQI0aNaR+/fqpOWvVqiV16tSR1atXC9oTpyUCwIULF2TKlCnSsmVLJRxCIb5BgwbKAFJEcjzjHaoNKOPHj5czZ86UoBstOH78uOzfv1+le+PGDbl48aL+vWDBAmnXrp3OARBNmzbVeStXriwzZsyIBUJeALx//15mz56tKotKwjCMoboQiHSQkkmKZ7wzVQYM3k2fPl1ev35dAoiwP+i3ZcsWadOmjQJh61WpUkUAKGqLDcD169ele/fuUrVqVZUy0gAAgMCGO3ToIAMHDpRx48bJhAkTZNCgQdK5c2fVAgOLMQDCHJ06dZJLly550080YG7TJuYBhO3bt3vPQcdYAJw/f16liFc2JmAKD71o0SI5ffq0vHv3LouQDx8+CGOXLVumEoR4zIM5AA0AT5w4kTUu7AFOFRBYmznQsObNm8uTJ0/ChmQ9jwzA7du3lVEIZlGIRo2xwTDHlrWqiMbzxYsXq0bgG5gLk0GS165dCxoS+OzLly/qcKGBOdCmefPmBfYNehgJgE+fPqknN8mDOB56x44dQXN7PTt58qRqA8zDAIxgKm/fvvUaTydMB1rQJgSCJhKRfFokAJAYCEMoXh0tIGvLt928eVNVFzBNimSAURr9MQWcIqa1adMmr+HeABCOINASE7Rg8+bNXov4dCLNNRNgDTSB8Ofbzp49q2MwIWjDN/g0bwAIMSCLhEB64sSJPvNH6oPt2hqESPIE34Z5YjpmlkSo79+/O4d7AYBHJwFhclQfNbt3755z8qgdCG3YL3bMOkgzimMdOnSomiVjScqePXvmJMELANQTicA4d1LdQjXCaBxbhh7SbNQfE+LyEZIXAMRtVNMAOHToUKH4F2wZ54r0AXvSpEneayEYxsA8WnD37l3nWCcAFBnDhw9XB4Nqolq+Ica5ekAH0mszN/KDPn36eJe9+CU0AOabNWumlWjAEiUeOQEg0ejatatGAKIAv9m0KFSjGKLMtWIKMADF1XB4PXv21HH4qo4dOwqZp6s5ATCJIH3CFDl93NLTRYy9HzlyZErjKKlfvnxpr0LvV65cUSFhOoTQESNGhPZNf+EE4OPHj4omqAIABU6hAcDkrDag6vOpFEnSrCYgWVu/fn06n6G/nQBQcLCRgUpiAl26dJGvX7+GTpjvC7a5bD1Ap0r8/PlzzmnZdcLmLXziBO/fv59zjL10AkDHUaNGqVrhXKi2Hj9+bOMTv6Pu7B6ZyaFxv3//Dl0HwDAZvD9JGtFq2rRpof0zX3gBsGTJklRsRs327duXOU9ifx8+fFiZsZDryjnIHlF5+iMgrjt37njT4wUAW1SEFxbhXog02CimrEaarAXYYZUmkWjOnDnaB8dHfzZE2D6P0rwAIM9mh8eKIe6XL1+Oso5XXxIXmEGKmABpcWYEwBwQSP/+/VPMWwXJdnnUrXIvAKB+1apVqVIYLcAvJN3I+tJtOb0kJvLs3btXGSdCcCF1LkxgwIABgbtQLhq9AUASZIF4ZlPPNWvWuOb3fr9x48aUnzENSE9lYb5SpUrqjE3luaON+Amfyi+IGG8AGEz9bw6HUIMmcA6Qbzt48GCqikOdseWVK1eWmJYiifMCkzp3AMBUACDukVkkAEhTUX1LOJAUWRfE8i5O4wzQ0l6YxwTI/0nB0xv7hCRFCADgWdvAYAzhOc4GTSQAIIisjHrAQEAT+E2KzG6wb8OJ4rQgHmZgHjDbtm0bugfw6tUr2b17t0YhHCTr2lhME3Dmzp3rPIJLpzEyAAymzgYEK5GRBMQjSZIS9uNu3bolb968Udskm2STk3GENc4JIBxJmhRhhryfrTefxnkjOQAmgEMEQEwCPzF16lTvdD0WABCIJowZMya1j2c2CRAwg2Ygzd69e6tKc+hJH97BOO+NeasxfNPXdIDQJNZgXpsPH0Ly5tNiA2CTs1lim5lGAHcYRDpoBRcqms609UV6SCyfRsFGAmUOGk3g965du5zTxgYAe1y7dq1069YtkDGIQM1hnFAFGADAc2OeO31IsvgYwmcPL4wj8gTLIjEH1mUtV1ocC4A9e/aoeoMyjJn9wShOjYvfPIc5dmuxb/qaiaAVEEgfQGAuiqBt27aF8eh8TiQaPHiwmhjz4qNcaXskAHBqODDszRiECWwaM2ArmpiMp7569ap6c5wfKop0OQDh7A/7tJIXsNAMCGZOiCY6ZKbATu7/68Aa0ASo3DExju/DmjcAeN0ePXqopExyTA7jeP5Tp05lxe6wRXlO5sZBKRIyzTDTAAS2tNjlidNWrFihQAIqwmK3OKx5AcAmKAQxGZMiMVSWhCXzA4ewhXI9R1uGDBmic5o2YCokN4TTqI2skLFoAeDm2sh1AoDawyiqCvNMiuSXLl3q3KmJQji5Ahklc+PAWAsQ2BGKYw7pZ4UIjloiqOUEgNKTWI+0jXnsnS80CtX4NMbCJmtCPCc+ABSlHTlyRIWGWTEHtURQywkAYQ7mmQTVRCJ84FToxsELWoC2sTY0ECajNLTGIg9aBYhBLRQA0lbsh8uIyKzQgiZM6hnh0FJtwIeJKE4RJ2uRBo3izCBIi0IBYGPRnB5qj6fPtTmZFOPp82TSwF6/b9VJYsSuEVEKbcKXBB2UBALAZzAMAnk0gC3nuPV2OkNRf+OAqSegBS3EEXN26NuGDRum5gMIzEM+ktkCASBRQf1wQtx9C4vMyZP42/yQOcQoW96U5wgP38U8QS0LgMxvAXwPGYMmT+JZujNDG0mXqUN8G+NzHZNnAQBqIIbKYfukvv93o8jBH5kZEOKSalkAEG7M+3LPpzhJiki+DDcAuPM9cVItC4CxY8cqAJZGRvlEJSmiMufhq3N8ACaAVnJcllTLAoBjL7wtO7CcvPwrDVrKly8v/C9BmEOLQ2sWAEzCh4d8FxT1lCUOAb5jOAqjzCZLTDIfCQTAl6jS0K8IQGmQYj48FDUgH/RKw9iiBpQGKebDQ5nXgL/FVHE+DrndvQAAAABJRU5ErkJggg==;" vertex="1" parent="1">
          <mxGeometry x="370" y="185" width="64" height="67" as="geometry" />
        </mxCell>
        <mxCell id="kKnEaFU982FH7cg9OtYn-3" value="" style="shape=image;verticalLabelPosition=bottom;labelBackgroundColor=default;verticalAlign=top;aspect=fixed;imageAspect=0;image=data:image/png,iVBORw0KGgoAAAANSUhEUgAAAEAAAAA4CAYAAABNGP5yAAAF70lEQVRoBe1a2UscTxDOv6Ag+mI0Go3xiEdEVBRCggeiBsXjxSMkXqCgGGLAaIiCCKKCD+KFkuQlioqg4IEvHvgigSgJ3oJ44hElxiTGq358za9lZ0Z3J7vO6ug2FLMzs9Nd9U1X9VfVc4tueLt1w+0nEwCmGXAJCOzu7tKrV68oIyODsrKy6NmzZ9Ta2noJmtDluMD29jb5+PjQnTt3yNHRkSwsLKi0tPTmALCzs0OPHz+mBw8e0MOHD8ne3p4qKytNAFwGAjpXgbW1NZqYmGAyOTlJ+sq3b99oZWWF2ahtBvz9+5empqYMHg86z87O0t7enlZczwVgfHycEhMTyc/Pjzw9PQ0WOzs7evPmjU4AlpaWWHxwc3MzaEwPDw/mXnC1srIy2t/fPxOIMwEYGBggd3d3unv3LjteBAAIeAUFBToBWF5evhAAoDNAcHV1pdu3b1Nqair9/v1bAoIEACxRQUFBdO/ePfL29mYoIlAZKgCzsLBQFgC+vr4MeEPH1Hze2tqaamtrdQMwODhIDg4O5OXlxYwGCFiqMIUNEXNzc8rNzWUKYBlE/1AKfZqZmVFJSQm7t7i4SE5OTuytGTIenoUb8Zd4//59io2NpePjYwEIkhnQ3t7OliWgByXhClDu/fv3BkldXR0NDw+zweGPnz59oqamJtYn7o2OjrJ7mIEfP348vWfIuPHx8cwFYAvACA4Opj9//sgHAH7k4uJC09PTgofUcoKYA9fjAISEhEjigNYZAAAQRD5//qwWmwV65uXlMXc2AfC/C6hiBiBIHR4e/rMcHR0J3j5OVDkDVldXWbSOjIykqKgoWYI3+/bt2+sBAJggCAyWXgRgOQKi8/z586sBwMnJCfX19bH0FstnV1cXgd/LbWCC/0qEQNpQWxA3o7sACM6LFy8khCk6OprwZuU0ECFnZ2eytbVlERykTJdYWVlRUlKSpHujAoDAlZKSQjY2NqcsEssPBMaAlJzFxcVab25uUn5+PqsYvX79muRIdnY21dfXi7sybhAEhQbp4BSaG8+PSIY6OjokSip5wagzoKqqik19brD4iKpPUVGRkvZK+r5yALx7906ipJIXjAqALhdAdnatXQBBEGsx1mRxHID/g9TICYJbW1sseOXk5NDLly9lSWZmJtXU1Egmk1FnAEaH8qi8wN95Lo/fMH5mZkai4FkX+DII0HQtf/z+lVgGNY3p7++niooKVovr7u6+OURIEwR9f4MwIQ1HVQipuBwBzwABEzejuwBXAL4OdwCp+fXrF78s64hkCIkQqjdhYWGy5NGjR4wwiQcwGgAwtqenh4qLi9k+X2hoKAUGBjJBpobyOjgA8oL19XWxnoJzpMMA8F9FXOpCp4oD8PPnTyovL2eGIiAh4PGpi20vCGpxuAaWCPH392dg4E0r3RQFADtE4eHhjOfDSDHzO+8coCDCBwQEKF5qUwwAvPmnT5+ypY6Xnc8z+KzrvNT+5MkTFiuUmgmKAfD161dWqBATnrOM1XYNbjMyMiKw/8ePH9TY2EgolTc0NMiS6upq6uzsFPSDE8UAGBsbYyQFvo3cXR/BRgVY49DQkEBxECHcQ1rN44auo6WlJSUkJAj6URQA7N6C3cXExFBcXJxegl2aiIgI+vLli0BxVVSEUPa6KBFYT0T6bI7CldLS0sRdKecCkpEu8IK+AKSnp0u0UCwGSEa6wAsHBwc0Pz9Pc3NzsgWJFv/4QlMVVQKgaYChv00AXNTeIL7vUWNDdRlLKLgI2KqsvcG2tjbB9wGgri0tLYRvhrBkqUWgLwIjuAoHABmmuCol2R7v7e09RY2zOHwkwRMbIKkGgb6oK3AbQNaQZqN0p9kkAGxsbLAvw1CI4A+D8qIztQmn6sg9wCz5ZzhaAcDNDx8+sAewMclBUOsRLw3ZJz78wjeP4iaZAfwPzc3NLGUFy8JOrRoFumPqJycn08LCAjdNcDwXAPzr+/fvLFlBYRMVHzUJdEY8Q+aqrWkFQNuD1+WeCYDr8ib1tcM0A/RF7ro89x+fEbmlnZV2JwAAAABJRU5ErkJggg==;" vertex="1" parent="1">
          <mxGeometry x="610" y="220" width="64" height="56" as="geometry" />
        </mxCell>
        <mxCell id="kKnEaFU982FH7cg9OtYn-5" value="" style="shape=image;verticalLabelPosition=bottom;labelBackgroundColor=default;verticalAlign=top;aspect=fixed;imageAspect=0;image=data:image/png,iVBORw0KGgoAAAANSUhEUgAAAEAAAABECAYAAAAx+DPIAAAE/ElEQVR4Ae1b609UVxD3TyiP5f1YWF4F5LlblT4sINXwodZa4qMQISnQqgnQBFBIizZ9fapFCgEMDxVbpHU1gEkphIC2NJKoPIpgwTYShMKyjUCRSsFfM8cu/diew917Yzw3mWxCds7M/e3MnBnymw14yp8NT/n7QwIgI0ABBAYGhlBddRolJZ/iSOFxHD3ygd3k448+Q+NXZoyPTyjgOdaXAj09vUhJyYC/Xwx0zoFweMYfjg72F1eXYISFxqGw4Bis1t/XBYRwDWhv74KfPgquuiC4uYRA7xOJqMitMBoTYYxNsJvQi3u4h8Ld7Vk4OQYgKel1WGZmhUEQAmB4+GeEh8XB0yOMyaGD+bh65UeM353A1NRvmJy0n4yO3sFF82UkJ+9hIDg7BSAj/TBWVlaEQOAGYHVlFampb8NFFwQvz3CcOFEpZHi9SvPzC0h9M5uBQL40nb8kdCQ3AH19g9D7RjHDhLyWz8y0BSZjIpydArF7dzpWV1e53eEG4MyZ86AiRDnY3Pwtt0GlFfLzS+DoYGD1Z/LeFPfx3ABUVNSC8s7fLxp9fT9xG1Raoby8hkWAwT8Gg4O3uI/nBqDsZDVDPCjQhJGRUW6DSivU1jbARRcMH+8I3LjRz308NwBflJ1iERASvAn792chKysPmZm5mkh29rvsNqBo1PtG4ubNAXUAoKYnOOg5dhM4subHwKKCclFNocbLyyOM+aIJAC88n4yEhJ2If/lVTSQx4TWYTIkIMMSqGwH0K1MN6O29jgcPlrC4uKiJLC39ibKyU3B1CYGvj4opQAAEBhgxNDTMnXNKK1RXn2ZFUBMA+vu1vwYrK+skAHQNygjQogbIFJA1QBZBpW817vPkLSCvQdkHyEZINkKyE5StsJwF5DAkhyEN/iMkp0E5DcppkHt6U1pBToNyGpTToJwG5TQop0E5DcppUE6DchqU06B6HCEbQWLszq9Kt/bc59XXfwmdc5C6RdDJ0cCISSdLq3DhQgu++bpZEzGbW5GTcxTeXhvVBcDGEvP2Cl9jbhNzVG0h1jjRdomxpglLjMiJRJjWUvz00eoDQClALLGamgZ0dl5FR0e3kHR3/YCuru+FdMkm6RYUHIOnR7i6KbBWBMd+4S5aSivU1Z1Ttwj+yxU2gnaFRJ+L5lZs2bydESyvdPeIHoOqqno2DqvGFa4or2GrKo/Z4oNCjtOeT3TUVkZwJOb5tsRdWF5eFjpLdbZ4Q0PT2r5AS0ubkNMWixWRES+yW4NulPj4nXj4UAwAqgGUkgTo1NQ0tz/cbPFbQyMw+MfCzTUE6QcOcRu0KTQ2mhETHY+4LTvQ0d5l+zPX5/T0DFvOoijat/ctPHrEpc6+zA0AraWkpb3zeGfIayNKS6v4rf6jQVxf0WWnubl5HEg7CA+3ULjqgllDJuIINwBkZHBgCIEBprWtsYyMw2hr68Td8QnMzlphscz+D7GCXuL+/TlQSvy3Dn3Hitu3x9BwtglJ23bB3S2U1aN9ezOxvPyXyPuLL05ebv2OEaZt+0PUDEVGvMQq++ZNr8BeQosa1HFSF0ihv2N7Cu4J7ArZ0BKKAJsybWikvJHB1lWomFExsvfmKC1L0poctb/FRR9iYeEPmztCn+sCwGbx2rXrKP28EoWFx5GbU4S8vGLlJbcYeblFeP+9T1Bbew5jCjVhigBgA+JJ/JQAPIm/mpI+/w1wrQ+xuK7IqgAAAABJRU5ErkJggg==;" vertex="1" parent="1">
          <mxGeometry x="260" y="570" width="64" height="68" as="geometry" />
        </mxCell>
        <mxCell id="kKnEaFU982FH7cg9OtYn-6" value="" style="shape=image;verticalLabelPosition=bottom;labelBackgroundColor=default;verticalAlign=top;aspect=fixed;imageAspect=0;image=data:image/png,iVBORw0KGgoAAAANSUhEUgAAAEAAAABBCAYAAABhNaJ7AAAGcElEQVR4Ae2by0tVXRiH+zvUNCu1srK7FiKKEEVZoVYGRUahhZgg6iR1YGhF4iAJxJKsQRA0sol2p3SgUVANBCnUrhZKEZaV5RvP+lpyPGVnr7XP8Xzg3rDIk2u9l99672c7R2b5M2eW6y9WAHz9+vV/h9u3b9+sZDIC4PPnz1JZWSkpKSlSXFwsX758sWIa7EMNDQ2yfv162b9/v7x48cKIvBEATU1NEhERIUuXLpXo6GgpKSmRiYkJI4bB3tzc3CwxMTFKpqioKDly5IiRTEYAHD9+XCm+Zs0aWb16tcTGxsqJEyeCrZNjem1tbRIfHy8rVqwQZIqLi5Ndu3aFDoCBgQFJT0+XxYsXK4YrV66UBQsWSGtrq2Ohg7Wxu7tbli9fLsuWLVOyJCUlyZIlS+T27dtGLIwsAMoPHjxQiOMGoA7jhIQEaW9vN2LsZvPz589lw4YNSmFk0Bdx8eJFY7LGAMCho6NDMUd5BAAMhHj06JGxAKYHhoeHZcuWLQp0eGtXPHXqlCkptd8KAE6C9vz585XiCIJbpKWlyeDgoJUgTg6Rfon0uB08WchQVFRk5Pe+vKwBgMjp06eVANwCwhCQtm/fLh8+fPDlEbSfy8vLp/BbuHCh7N69W0ZHR615uAIArghFNtAgcCOHDh2S8fFxa6H+dpBcP2/ePFm1apUCe9GiRSogv3r16m/bHf+fawAohvbt2zdpltonjx075liIQBsvX74s3DZxBkvTAfjp06eBjgb8vWsA4DAyMiJZWVnKBRCQW+K2GhsbAwoQaANpjdsm5UFbZx0CcTCeoACAIM+ePVOpSdcIFCfEhKtXr1rL+eTJE1m7dq0kJiYq5bEALOHSpUvWNP0PBg0ACFMjIKQ2UW6N4uT+/fv+fAN+fv36tfJxbp+bx7Wwqtra2oBnTTYEFQAYUxBRGOkaAQBonnp7ex3L9enTJ9m5c6cqbVGeRXA9evSo/Pz50zEdJxuDDgBMKY3J1TpoAUhmZqa8ffs2oEwoWFBQoBTWylPj5+bmukp30zEOCQAwq6+vn5K28N09e/YILfW/npqamilpFRcAPLfpbjqeIQMAhqWlpVOU0VXbdGZ89uxZtV/nel1iEwxD9YQUgLGxMcnPz/+jRvhbC+3f2hJDyCjXr18Ple6KbkgBgINuXkiJ+DS3S3w4d+7cpGJkCdpa3doSO7CWmWizQw4AWtIgZWRkTLav3C6AUOQwwmKcRbYAINIdyp88eXISoFD+4BqA79+/q7qf2n+6hQI9PT2SnJysZgkoSY2QmpoqGzdunKI8Zs/ccaYeawC4VYLctm3bJDs7W3Jycv659u7dqwobKkQA4LaxBG32/B+mv27dOtVlMn8kKP5rnTlzRi5cuCAvX760xssKANrPHTt2yNy5c1WZivk6WSiIooEWqY844WQxnMW9TKfBGjErACh58WECWiBlQv17LImLwBJsHisAMDlukxuiUTFd5Hd/YHAFUzrs5yKYR3R1ddnob/fNEJyuXbsmeXl5agJEDDBZxA26PG1B/Lt582YjGvBj+kTPcOXKFSvlOWRlAb7cnGQB/+zQ39+vUh9BEOXxefr7Hz9+TJtJ/GnwGd5uH9cA2AhAq0vu9wXg1q1bNqRcnwkLALr48QXgxo0brpWxIeABYIOa2zOeBfyu/z0X8MkCsyoGMEbny01fC+js7HTrWVbnrYMg39DSsvIFSFVVleNVXV0tFRUVqjOkmqQOoEE6fPiw8DsTWvCuq6uTx48fWynPISsAPn78KJs2bZLIyEg1uWVoabIYkuoqkJKYep422ISG3svbIZzv6+uzAsEKAHp7BPCv58PxWTdDLS0tMwfA+/fvVSUH+pSx3KjJ4rZ9LQDgaGxMaLAX3kyPoPfw4cOZAwBOBC3eFDt48KCa4zPLd7oOHDigBh8aBGIBjVVhYaFjGvCCN+8G3Llzx0p5Dlm5gDW33weHhob+yAJ37951S9bqfFgAYJ7g3wzdvHnTSgG3h8ICgFcKe6Xwf98F+FaCs6oU9lzAcwHPBf5Ig14M8GaC3lDUbVFndd6rBK1gc3nIqwO8OmCW1wH87RFvj+pegOlOsF5+NvXOsATBd+/eKQB4T4ipEPPFe/fumcoelP1hAQDJy8rK1N8g8rd+W7duFd4PDscTNgB4Zfb8+fPqldo3b96EQ3fFM2wAhE1jP8YeAH6AzLqPvwB/d1rkPWLXCAAAAABJRU5ErkJggg==;" vertex="1" parent="1">
          <mxGeometry x="444" y="559" width="64" height="65" as="geometry" />
        </mxCell>
        <mxCell id="kKnEaFU982FH7cg9OtYn-8" value="" style="shape=image;verticalLabelPosition=bottom;labelBackgroundColor=default;verticalAlign=top;aspect=fixed;imageAspect=0;image=data:image/png,iVBORw0KGgoAAAANSUhEUgAAAEAAAABACAYAAACqaXHeAAADeElEQVR4Ae1az0s6QRTv78gyITtESBrUJYgoAsWjRJ6CuheBGf1A8CAG4UEK/Ac8CJ0LI6goiOhUQRB1ECKwhPSgEEXai8+A8cVZdXeJdL/7BoZlZ9+bmffZNzPvzXsdZPLSYXL5iQFgDTA5ArwETK4A6jbBx8dHurm5oevra0PUu7s7KhaLqv5twyVweXlJMzMzZLFYqLu72zC1q6uLBgYGaG1tjV5eXhoCUReAw8NDslqtQmiPx0MLCwsUDAYpEAi0bV1eXhZzm5+fFwBg/kNDQ3RxcVEXBEUAcrmc6ABI7u7u1mVu5w+FQoEikQhBhr6+Prq/v1ecriIAm5ub4u/jafSSSCSELHNzc4qiKALg9XqF6kMT/ocyNjYm5Mlms5I4EgAfHx/kcDhocHCQPj8/JQYjNmBvwCZ+fn4uTV8CAMdHb28vjYyMSMRGbVhfXxfL4OjoSBJBAqBUKpHdbqfh4WH6+vqSGIzYgOMQJ8Lx8bE0fQagFhLWAF4CvAfwJsinAB+DbAewIcSWIJvC7AuwM8TeILvDfB9Q6y0b8p0vRPhGiK/E+E6QL0X5VpivxTkuoCowYvrQ2NvbG/X395PL5aJyuWxIy6920qurqyI4enZ2VvtJzhGCBzg5OUk2m43y+bzEYMQGhPuR5pPJZKTpS7FBUCwtLQnDYW9vT2IwWgPWPULjbrdb8X5DEQDE0cE0OjpKr6+vRpP5Z75XV1fkdDqFLEqhcRAqAoAPoVBIaMHU1JQ4Pp6enuj5+blpRRYG6NQUZKBU6dX0rZbm4eGBtre3xTKGBRiLxepOpy4A4EBiQTU9Dmuos7NTVUViUjwerzsoPqRSKZGIpaVfLeNDcES4kCPUqDQEAIzpdJoWFxdpenqafD6fqgra/f39RuPSxsaGAHd8fFxVn2rHBt3s7Czt7OwQEjyblaYANOtA7/dwOCyW2MnJid4ufoWv5QAcHBz8iiB6O2k5AFhirSwMQKvQr+4BptWAaDQqNsHT09NW/QMxru4lcHt7K+wEZJCvrKxoqnBOJiYmRCKz3+8nvGvtA/QYO5lMUqVS0Q2ibgC2traop6fnx1CqGkxqnzCWYAThqZanlg7GDrzW9/f3vwcAbjPcS9jYcDi0VvDhCNTK9y89+lDy8LSgoVsDtAzSzrQMQDv/nb+YG2vAX6DczmOYXgO+ATAlwurPqm8SAAAAAElFTkSuQmCC;" vertex="1" parent="1">
          <mxGeometry x="520" y="390" width="64" height="64" as="geometry" />
        </mxCell>
        <mxCell id="kKnEaFU982FH7cg9OtYn-13" value="" style="shape=image;verticalLabelPosition=bottom;labelBackgroundColor=default;verticalAlign=top;aspect=fixed;imageAspect=0;image=data:image/png,iVBORw0KGgoAAAANSUhEUgAAAEAAAAA4CAYAAABNGP5yAAAF70lEQVRoBe1a2UscTxDOv6Ag+mI0Go3xiEdEVBRCggeiBsXjxSMkXqCgGGLAaIiCCKKCD+KFkuQlioqg4IEvHvgigSgJ3oJ44hElxiTGq358za9lZ0Z3J7vO6ug2FLMzs9Nd9U1X9VfVc4tueLt1w+0nEwCmGXAJCOzu7tKrV68oIyODsrKy6NmzZ9Ta2noJmtDluMD29jb5+PjQnTt3yNHRkSwsLKi0tPTmALCzs0OPHz+mBw8e0MOHD8ne3p4qKytNAFwGAjpXgbW1NZqYmGAyOTlJ+sq3b99oZWWF2ahtBvz9+5empqYMHg86z87O0t7enlZczwVgfHycEhMTyc/Pjzw9PQ0WOzs7evPmjU4AlpaWWHxwc3MzaEwPDw/mXnC1srIy2t/fPxOIMwEYGBggd3d3unv3LjteBAAIeAUFBToBWF5evhAAoDNAcHV1pdu3b1Nqair9/v1bAoIEACxRQUFBdO/ePfL29mYoIlAZKgCzsLBQFgC+vr4MeEPH1Hze2tqaamtrdQMwODhIDg4O5OXlxYwGCFiqMIUNEXNzc8rNzWUKYBlE/1AKfZqZmVFJSQm7t7i4SE5OTuytGTIenoUb8Zd4//59io2NpePjYwEIkhnQ3t7OliWgByXhClDu/fv3BkldXR0NDw+zweGPnz59oqamJtYn7o2OjrJ7mIEfP348vWfIuPHx8cwFYAvACA4Opj9//sgHAH7k4uJC09PTgofUcoKYA9fjAISEhEjigNYZAAAQRD5//qwWmwV65uXlMXc2AfC/C6hiBiBIHR4e/rMcHR0J3j5OVDkDVldXWbSOjIykqKgoWYI3+/bt2+sBAJggCAyWXgRgOQKi8/z586sBwMnJCfX19bH0FstnV1cXgd/LbWCC/0qEQNpQWxA3o7sACM6LFy8khCk6OprwZuU0ECFnZ2eytbVlERykTJdYWVlRUlKSpHujAoDAlZKSQjY2NqcsEssPBMaAlJzFxcVab25uUn5+PqsYvX79muRIdnY21dfXi7sybhAEhQbp4BSaG8+PSIY6OjokSip5wagzoKqqik19brD4iKpPUVGRkvZK+r5yALx7906ipJIXjAqALhdAdnatXQBBEGsx1mRxHID/g9TICYJbW1sseOXk5NDLly9lSWZmJtXU1Egmk1FnAEaH8qi8wN95Lo/fMH5mZkai4FkX+DII0HQtf/z+lVgGNY3p7++niooKVovr7u6+OURIEwR9f4MwIQ1HVQipuBwBzwABEzejuwBXAL4OdwCp+fXrF78s64hkCIkQqjdhYWGy5NGjR4wwiQcwGgAwtqenh4qLi9k+X2hoKAUGBjJBpobyOjgA8oL19XWxnoJzpMMA8F9FXOpCp4oD8PPnTyovL2eGIiAh4PGpi20vCGpxuAaWCPH392dg4E0r3RQFADtE4eHhjOfDSDHzO+8coCDCBwQEKF5qUwwAvPmnT5+ypY6Xnc8z+KzrvNT+5MkTFiuUmgmKAfD161dWqBATnrOM1XYNbjMyMiKw/8ePH9TY2EgolTc0NMiS6upq6uzsFPSDE8UAGBsbYyQFvo3cXR/BRgVY49DQkEBxECHcQ1rN44auo6WlJSUkJAj6URQA7N6C3cXExFBcXJxegl2aiIgI+vLli0BxVVSEUPa6KBFYT0T6bI7CldLS0sRdKecCkpEu8IK+AKSnp0u0UCwGSEa6wAsHBwc0Pz9Pc3NzsgWJFv/4QlMVVQKgaYChv00AXNTeIL7vUWNDdRlLKLgI2KqsvcG2tjbB9wGgri0tLYRvhrBkqUWgLwIjuAoHABmmuCol2R7v7e09RY2zOHwkwRMbIKkGgb6oK3AbQNaQZqN0p9kkAGxsbLAvw1CI4A+D8qIztQmn6sg9wCz5ZzhaAcDNDx8+sAewMclBUOsRLw3ZJz78wjeP4iaZAfwPzc3NLGUFy8JOrRoFumPqJycn08LCAjdNcDwXAPzr+/fvLFlBYRMVHzUJdEY8Q+aqrWkFQNuD1+WeCYDr8ib1tcM0A/RF7ro89x+fEbmlnZV2JwAAAABJRU5ErkJggg==;" vertex="1" parent="1">
          <mxGeometry x="306" y="344" width="64" height="56" as="geometry" />
        </mxCell>
        <mxCell id="kKnEaFU982FH7cg9OtYn-14" style="edgeStyle=orthogonalEdgeStyle;rounded=0;orthogonalLoop=1;jettySize=auto;html=1;strokeColor=default;curved=1;endArrow=none;endFill=0;exitX=0;exitY=0.5;exitDx=0;exitDy=0;" edge="1" parent="1" source="kKnEaFU982FH7cg9OtYn-2" target="kKnEaFU982FH7cg9OtYn-13">
          <mxGeometry relative="1" as="geometry">
            <mxPoint x="400" y="215" as="sourcePoint" />
            <mxPoint x="620" y="258" as="targetPoint" />
          </mxGeometry>
        </mxCell>
        <mxCell id="kKnEaFU982FH7cg9OtYn-15" style="edgeStyle=orthogonalEdgeStyle;rounded=0;orthogonalLoop=1;jettySize=auto;html=1;strokeColor=default;curved=1;endArrow=none;endFill=0;" edge="1" parent="1" source="kKnEaFU982FH7cg9OtYn-13" target="kKnEaFU982FH7cg9OtYn-5">
          <mxGeometry relative="1" as="geometry">
            <mxPoint x="380" y="214" as="sourcePoint" />
            <mxPoint x="348" y="354" as="targetPoint" />
          </mxGeometry>
        </mxCell>
        <mxCell id="pVb0jdcSb9yrTqbo0Daq-1" value="" style="shape=image;verticalLabelPosition=bottom;labelBackgroundColor=default;verticalAlign=top;aspect=fixed;imageAspect=0;image=data:image/png,iVBORw0KGgoAAAANSUhEUgAAAEAAAABECAYAAAAx+DPIAAAE/ElEQVR4Ae1b609UVxD3TyiP5f1YWF4F5LlblT4sINXwodZa4qMQISnQqgnQBFBIizZ9fapFCgEMDxVbpHU1gEkphIC2NJKoPIpgwTYShMKyjUCRSsFfM8cu/diew917Yzw3mWxCds7M/e3MnBnymw14yp8NT/n7QwIgI0ABBAYGhlBddRolJZ/iSOFxHD3ygd3k448+Q+NXZoyPTyjgOdaXAj09vUhJyYC/Xwx0zoFweMYfjg72F1eXYISFxqGw4Bis1t/XBYRwDWhv74KfPgquuiC4uYRA7xOJqMitMBoTYYxNsJvQi3u4h8Ld7Vk4OQYgKel1WGZmhUEQAmB4+GeEh8XB0yOMyaGD+bh65UeM353A1NRvmJy0n4yO3sFF82UkJ+9hIDg7BSAj/TBWVlaEQOAGYHVlFampb8NFFwQvz3CcOFEpZHi9SvPzC0h9M5uBQL40nb8kdCQ3AH19g9D7RjHDhLyWz8y0BSZjIpydArF7dzpWV1e53eEG4MyZ86AiRDnY3Pwtt0GlFfLzS+DoYGD1Z/LeFPfx3ABUVNSC8s7fLxp9fT9xG1Raoby8hkWAwT8Gg4O3uI/nBqDsZDVDPCjQhJGRUW6DSivU1jbARRcMH+8I3LjRz308NwBflJ1iERASvAn792chKysPmZm5mkh29rvsNqBo1PtG4ubNAXUAoKYnOOg5dhM4subHwKKCclFNocbLyyOM+aIJAC88n4yEhJ2If/lVTSQx4TWYTIkIMMSqGwH0K1MN6O29jgcPlrC4uKiJLC39ibKyU3B1CYGvj4opQAAEBhgxNDTMnXNKK1RXn2ZFUBMA+vu1vwYrK+skAHQNygjQogbIFJA1QBZBpW817vPkLSCvQdkHyEZINkKyE5StsJwF5DAkhyEN/iMkp0E5DcppkHt6U1pBToNyGpTToJwG5TQop0E5DcppUE6DchqU06B6HCEbQWLszq9Kt/bc59XXfwmdc5C6RdDJ0cCISSdLq3DhQgu++bpZEzGbW5GTcxTeXhvVBcDGEvP2Cl9jbhNzVG0h1jjRdomxpglLjMiJRJjWUvz00eoDQClALLGamgZ0dl5FR0e3kHR3/YCuru+FdMkm6RYUHIOnR7i6KbBWBMd+4S5aSivU1Z1Ttwj+yxU2gnaFRJ+L5lZs2bydESyvdPeIHoOqqno2DqvGFa4or2GrKo/Z4oNCjtOeT3TUVkZwJOb5tsRdWF5eFjpLdbZ4Q0PT2r5AS0ubkNMWixWRES+yW4NulPj4nXj4UAwAqgGUkgTo1NQ0tz/cbPFbQyMw+MfCzTUE6QcOcRu0KTQ2mhETHY+4LTvQ0d5l+zPX5/T0DFvOoijat/ctPHrEpc6+zA0AraWkpb3zeGfIayNKS6v4rf6jQVxf0WWnubl5HEg7CA+3ULjqgllDJuIINwBkZHBgCIEBprWtsYyMw2hr68Td8QnMzlphscz+D7GCXuL+/TlQSvy3Dn3Hitu3x9BwtglJ23bB3S2U1aN9ezOxvPyXyPuLL05ebv2OEaZt+0PUDEVGvMQq++ZNr8BeQosa1HFSF0ihv2N7Cu4J7ArZ0BKKAJsybWikvJHB1lWomFExsvfmKC1L0poctb/FRR9iYeEPmztCn+sCwGbx2rXrKP28EoWFx5GbU4S8vGLlJbcYeblFeP+9T1Bbew5jCjVhigBgA+JJ/JQAPIm/mpI+/w1wrQ+xuK7IqgAAAABJRU5ErkJggg==;" vertex="1" parent="1">
          <mxGeometry x="890" y="152" width="64" height="68" as="geometry" />
        </mxCell>
        <mxCell id="pVb0jdcSb9yrTqbo0Daq-2" style="edgeStyle=orthogonalEdgeStyle;rounded=0;orthogonalLoop=1;jettySize=auto;html=1;exitX=1;exitY=0.5;exitDx=0;exitDy=0;strokeColor=default;curved=1;endArrow=none;endFill=0;" edge="1" parent="1" source="kKnEaFU982FH7cg9OtYn-3">
          <mxGeometry relative="1" as="geometry">
            <mxPoint x="444" y="214" as="sourcePoint" />
            <mxPoint x="910" y="190" as="targetPoint" />
            <Array as="points">
              <mxPoint x="800" y="248" />
              <mxPoint x="800" y="220" />
              <mxPoint x="890" y="220" />
            </Array>
          </mxGeometry>
        </mxCell>
        <mxCell id="pVb0jdcSb9yrTqbo0Daq-3" value="" style="shape=image;verticalLabelPosition=bottom;labelBackgroundColor=default;verticalAlign=top;aspect=fixed;imageAspect=0;image=data:image/png,iVBORw0KGgoAAAANSUhEUgAAAEAAAABBCAYAAABhNaJ7AAAGcElEQVR4Ae2by0tVXRiH+zvUNCu1srK7FiKKEEVZoVYGRUahhZgg6iR1YGhF4iAJxJKsQRA0sol2p3SgUVANBCnUrhZKEZaV5RvP+lpyPGVnr7XP8Xzg3rDIk2u9l99672c7R2b5M2eW6y9WAHz9+vV/h9u3b9+sZDIC4PPnz1JZWSkpKSlSXFwsX758sWIa7EMNDQ2yfv162b9/v7x48cKIvBEATU1NEhERIUuXLpXo6GgpKSmRiYkJI4bB3tzc3CwxMTFKpqioKDly5IiRTEYAHD9+XCm+Zs0aWb16tcTGxsqJEyeCrZNjem1tbRIfHy8rVqwQZIqLi5Ndu3aFDoCBgQFJT0+XxYsXK4YrV66UBQsWSGtrq2Ohg7Wxu7tbli9fLsuWLVOyJCUlyZIlS+T27dtGLIwsAMoPHjxQiOMGoA7jhIQEaW9vN2LsZvPz589lw4YNSmFk0Bdx8eJFY7LGAMCho6NDMUd5BAAMhHj06JGxAKYHhoeHZcuWLQp0eGtXPHXqlCkptd8KAE6C9vz585XiCIJbpKWlyeDgoJUgTg6Rfon0uB08WchQVFRk5Pe+vKwBgMjp06eVANwCwhCQtm/fLh8+fPDlEbSfy8vLp/BbuHCh7N69W0ZHR615uAIArghFNtAgcCOHDh2S8fFxa6H+dpBcP2/ePFm1apUCe9GiRSogv3r16m/bHf+fawAohvbt2zdpltonjx075liIQBsvX74s3DZxBkvTAfjp06eBjgb8vWsA4DAyMiJZWVnKBRCQW+K2GhsbAwoQaANpjdsm5UFbZx0CcTCeoACAIM+ePVOpSdcIFCfEhKtXr1rL+eTJE1m7dq0kJiYq5bEALOHSpUvWNP0PBg0ACFMjIKQ2UW6N4uT+/fv+fAN+fv36tfJxbp+bx7Wwqtra2oBnTTYEFQAYUxBRGOkaAQBonnp7ex3L9enTJ9m5c6cqbVGeRXA9evSo/Pz50zEdJxuDDgBMKY3J1TpoAUhmZqa8ffs2oEwoWFBQoBTWylPj5+bmukp30zEOCQAwq6+vn5K28N09e/YILfW/npqamilpFRcAPLfpbjqeIQMAhqWlpVOU0VXbdGZ89uxZtV/nel1iEwxD9YQUgLGxMcnPz/+jRvhbC+3f2hJDyCjXr18Ple6KbkgBgINuXkiJ+DS3S3w4d+7cpGJkCdpa3doSO7CWmWizQw4AWtIgZWRkTLav3C6AUOQwwmKcRbYAINIdyp88eXISoFD+4BqA79+/q7qf2n+6hQI9PT2SnJysZgkoSY2QmpoqGzdunKI8Zs/ccaYeawC4VYLctm3bJDs7W3Jycv659u7dqwobKkQA4LaxBG32/B+mv27dOtVlMn8kKP5rnTlzRi5cuCAvX760xssKANrPHTt2yNy5c1WZivk6WSiIooEWqY844WQxnMW9TKfBGjErACh58WECWiBlQv17LImLwBJsHisAMDlukxuiUTFd5Hd/YHAFUzrs5yKYR3R1ddnob/fNEJyuXbsmeXl5agJEDDBZxA26PG1B/Lt582YjGvBj+kTPcOXKFSvlOWRlAb7cnGQB/+zQ39+vUh9BEOXxefr7Hz9+TJtJ/GnwGd5uH9cA2AhAq0vu9wXg1q1bNqRcnwkLALr48QXgxo0brpWxIeABYIOa2zOeBfyu/z0X8MkCsyoGMEbny01fC+js7HTrWVbnrYMg39DSsvIFSFVVleNVXV0tFRUVqjOkmqQOoEE6fPiw8DsTWvCuq6uTx48fWynPISsAPn78KJs2bZLIyEg1uWVoabIYkuoqkJKYep422ISG3svbIZzv6+uzAsEKAHp7BPCv58PxWTdDLS0tMwfA+/fvVSUH+pSx3KjJ4rZ9LQDgaGxMaLAX3kyPoPfw4cOZAwBOBC3eFDt48KCa4zPLd7oOHDigBh8aBGIBjVVhYaFjGvCCN+8G3Llzx0p5Dlm5gDW33weHhob+yAJ37951S9bqfFgAYJ7g3wzdvHnTSgG3h8ICgFcKe6Xwf98F+FaCs6oU9lzAcwHPBf5Ig14M8GaC3lDUbVFndd6rBK1gc3nIqwO8OmCW1wH87RFvj+pegOlOsF5+NvXOsATBd+/eKQB4T4ipEPPFe/fumcoelP1hAQDJy8rK1N8g8rd+W7duFd4PDscTNgB4Zfb8+fPqldo3b96EQ3fFM2wAhE1jP8YeAH6AzLqPvwB/d1rkPWLXCAAAAABJRU5ErkJggg==;" vertex="1" parent="1">
          <mxGeometry x="840" y="420" width="64" height="65" as="geometry" />
        </mxCell>
        <mxCell id="pVb0jdcSb9yrTqbo0Daq-4" style="edgeStyle=orthogonalEdgeStyle;rounded=0;orthogonalLoop=1;jettySize=auto;html=1;strokeColor=default;curved=1;endArrow=none;endFill=0;" edge="1" parent="1" source="kKnEaFU982FH7cg9OtYn-3" target="pVb0jdcSb9yrTqbo0Daq-3">
          <mxGeometry relative="1" as="geometry">
            <mxPoint x="684" y="258" as="sourcePoint" />
            <mxPoint x="900" y="196" as="targetPoint" />
          </mxGeometry>
        </mxCell>
        <mxCell id="pVb0jdcSb9yrTqbo0Daq-5" value="" style="shape=image;verticalLabelPosition=bottom;labelBackgroundColor=default;verticalAlign=top;aspect=fixed;imageAspect=0;image=data:image/png,iVBORw0KGgoAAAANSUhEUgAAAEAAAAA4CAYAAABNGP5yAAAF70lEQVRoBe1a2UscTxDOv6Ag+mI0Go3xiEdEVBRCggeiBsXjxSMkXqCgGGLAaIiCCKKCD+KFkuQlioqg4IEvHvgigSgJ3oJ44hElxiTGq358za9lZ0Z3J7vO6ug2FLMzs9Nd9U1X9VfVc4tueLt1w+0nEwCmGXAJCOzu7tKrV68oIyODsrKy6NmzZ9Ta2noJmtDluMD29jb5+PjQnTt3yNHRkSwsLKi0tPTmALCzs0OPHz+mBw8e0MOHD8ne3p4qKytNAFwGAjpXgbW1NZqYmGAyOTlJ+sq3b99oZWWF2ahtBvz9+5empqYMHg86z87O0t7enlZczwVgfHycEhMTyc/Pjzw9PQ0WOzs7evPmjU4AlpaWWHxwc3MzaEwPDw/mXnC1srIy2t/fPxOIMwEYGBggd3d3unv3LjteBAAIeAUFBToBWF5evhAAoDNAcHV1pdu3b1Nqair9/v1bAoIEACxRQUFBdO/ePfL29mYoIlAZKgCzsLBQFgC+vr4MeEPH1Hze2tqaamtrdQMwODhIDg4O5OXlxYwGCFiqMIUNEXNzc8rNzWUKYBlE/1AKfZqZmVFJSQm7t7i4SE5OTuytGTIenoUb8Zd4//59io2NpePjYwEIkhnQ3t7OliWgByXhClDu/fv3BkldXR0NDw+zweGPnz59oqamJtYn7o2OjrJ7mIEfP348vWfIuPHx8cwFYAvACA4Opj9//sgHAH7k4uJC09PTgofUcoKYA9fjAISEhEjigNYZAAAQRD5//qwWmwV65uXlMXc2AfC/C6hiBiBIHR4e/rMcHR0J3j5OVDkDVldXWbSOjIykqKgoWYI3+/bt2+sBAJggCAyWXgRgOQKi8/z586sBwMnJCfX19bH0FstnV1cXgd/LbWCC/0qEQNpQWxA3o7sACM6LFy8khCk6OprwZuU0ECFnZ2eytbVlERykTJdYWVlRUlKSpHujAoDAlZKSQjY2NqcsEssPBMaAlJzFxcVab25uUn5+PqsYvX79muRIdnY21dfXi7sybhAEhQbp4BSaG8+PSIY6OjokSip5wagzoKqqik19brD4iKpPUVGRkvZK+r5yALx7906ipJIXjAqALhdAdnatXQBBEGsx1mRxHID/g9TICYJbW1sseOXk5NDLly9lSWZmJtXU1Egmk1FnAEaH8qi8wN95Lo/fMH5mZkai4FkX+DII0HQtf/z+lVgGNY3p7++niooKVovr7u6+OURIEwR9f4MwIQ1HVQipuBwBzwABEzejuwBXAL4OdwCp+fXrF78s64hkCIkQqjdhYWGy5NGjR4wwiQcwGgAwtqenh4qLi9k+X2hoKAUGBjJBpobyOjgA8oL19XWxnoJzpMMA8F9FXOpCp4oD8PPnTyovL2eGIiAh4PGpi20vCGpxuAaWCPH392dg4E0r3RQFADtE4eHhjOfDSDHzO+8coCDCBwQEKF5qUwwAvPmnT5+ypY6Xnc8z+KzrvNT+5MkTFiuUmgmKAfD161dWqBATnrOM1XYNbjMyMiKw/8ePH9TY2EgolTc0NMiS6upq6uzsFPSDE8UAGBsbYyQFvo3cXR/BRgVY49DQkEBxECHcQ1rN44auo6WlJSUkJAj6URQA7N6C3cXExFBcXJxegl2aiIgI+vLli0BxVVSEUPa6KBFYT0T6bI7CldLS0sRdKecCkpEu8IK+AKSnp0u0UCwGSEa6wAsHBwc0Pz9Pc3NzsgWJFv/4QlMVVQKgaYChv00AXNTeIL7vUWNDdRlLKLgI2KqsvcG2tjbB9wGgri0tLYRvhrBkqUWgLwIjuAoHABmmuCol2R7v7e09RY2zOHwkwRMbIKkGgb6oK3AbQNaQZqN0p9kkAGxsbLAvw1CI4A+D8qIztQmn6sg9wCz5ZzhaAcDNDx8+sAewMclBUOsRLw3ZJz78wjeP4iaZAfwPzc3NLGUFy8JOrRoFumPqJycn08LCAjdNcDwXAPzr+/fvLFlBYRMVHzUJdEY8Q+aqrWkFQNuD1+WeCYDr8ib1tcM0A/RF7ro89x+fEbmlnZV2JwAAAABJRU5ErkJggg==;" vertex="1" parent="1">
          <mxGeometry x="720" y="650" width="64" height="56" as="geometry" />
        </mxCell>
        <mxCell id="pVb0jdcSb9yrTqbo0Daq-6" style="edgeStyle=orthogonalEdgeStyle;rounded=0;orthogonalLoop=1;jettySize=auto;html=1;strokeColor=default;curved=1;endArrow=none;endFill=0;exitX=1;exitY=0.5;exitDx=0;exitDy=0;entryX=0;entryY=0.5;entryDx=0;entryDy=0;" edge="1" parent="1" source="kKnEaFU982FH7cg9OtYn-8" target="pVb0jdcSb9yrTqbo0Daq-3">
          <mxGeometry relative="1" as="geometry">
            <mxPoint x="684" y="258" as="sourcePoint" />
            <mxPoint x="882" y="430" as="targetPoint" />
          </mxGeometry>
        </mxCell>
        <mxCell id="pVb0jdcSb9yrTqbo0Daq-7" style="edgeStyle=orthogonalEdgeStyle;rounded=0;orthogonalLoop=1;jettySize=auto;html=1;strokeColor=default;curved=1;endArrow=none;endFill=0;exitX=0.5;exitY=1;exitDx=0;exitDy=0;" edge="1" parent="1" source="kKnEaFU982FH7cg9OtYn-3" target="kKnEaFU982FH7cg9OtYn-8">
          <mxGeometry relative="1" as="geometry">
            <mxPoint x="694" y="268" as="sourcePoint" />
            <mxPoint x="892" y="440" as="targetPoint" />
          </mxGeometry>
        </mxCell>
        <mxCell id="pVb0jdcSb9yrTqbo0Daq-8" style="edgeStyle=orthogonalEdgeStyle;rounded=0;orthogonalLoop=1;jettySize=auto;html=1;strokeColor=default;curved=1;endArrow=none;endFill=0;" edge="1" parent="1" source="pVb0jdcSb9yrTqbo0Daq-3" target="pVb0jdcSb9yrTqbo0Daq-5">
          <mxGeometry relative="1" as="geometry">
            <mxPoint x="704" y="278" as="sourcePoint" />
            <mxPoint x="902" y="450" as="targetPoint" />
            <Array as="points">
              <mxPoint x="850" y="678" />
            </Array>
          </mxGeometry>
        </mxCell>
        <mxCell id="pVb0jdcSb9yrTqbo0Daq-9" value="" style="shape=image;verticalLabelPosition=bottom;labelBackgroundColor=default;verticalAlign=top;aspect=fixed;imageAspect=0;image=data:image/png,iVBORw0KGgoAAAANSUhEUgAAAEAAAABECAYAAAAx+DPIAAAE/ElEQVR4Ae1b609UVxD3TyiP5f1YWF4F5LlblT4sINXwodZa4qMQISnQqgnQBFBIizZ9fapFCgEMDxVbpHU1gEkphIC2NJKoPIpgwTYShMKyjUCRSsFfM8cu/diew917Yzw3mWxCds7M/e3MnBnymw14yp8NT/n7QwIgI0ABBAYGhlBddRolJZ/iSOFxHD3ygd3k448+Q+NXZoyPTyjgOdaXAj09vUhJyYC/Xwx0zoFweMYfjg72F1eXYISFxqGw4Bis1t/XBYRwDWhv74KfPgquuiC4uYRA7xOJqMitMBoTYYxNsJvQi3u4h8Ld7Vk4OQYgKel1WGZmhUEQAmB4+GeEh8XB0yOMyaGD+bh65UeM353A1NRvmJy0n4yO3sFF82UkJ+9hIDg7BSAj/TBWVlaEQOAGYHVlFampb8NFFwQvz3CcOFEpZHi9SvPzC0h9M5uBQL40nb8kdCQ3AH19g9D7RjHDhLyWz8y0BSZjIpydArF7dzpWV1e53eEG4MyZ86AiRDnY3Pwtt0GlFfLzS+DoYGD1Z/LeFPfx3ABUVNSC8s7fLxp9fT9xG1Raoby8hkWAwT8Gg4O3uI/nBqDsZDVDPCjQhJGRUW6DSivU1jbARRcMH+8I3LjRz308NwBflJ1iERASvAn792chKysPmZm5mkh29rvsNqBo1PtG4ubNAXUAoKYnOOg5dhM4subHwKKCclFNocbLyyOM+aIJAC88n4yEhJ2If/lVTSQx4TWYTIkIMMSqGwH0K1MN6O29jgcPlrC4uKiJLC39ibKyU3B1CYGvj4opQAAEBhgxNDTMnXNKK1RXn2ZFUBMA+vu1vwYrK+skAHQNygjQogbIFJA1QBZBpW817vPkLSCvQdkHyEZINkKyE5StsJwF5DAkhyEN/iMkp0E5DcppkHt6U1pBToNyGpTToJwG5TQop0E5DcppUE6DchqU06B6HCEbQWLszq9Kt/bc59XXfwmdc5C6RdDJ0cCISSdLq3DhQgu++bpZEzGbW5GTcxTeXhvVBcDGEvP2Cl9jbhNzVG0h1jjRdomxpglLjMiJRJjWUvz00eoDQClALLGamgZ0dl5FR0e3kHR3/YCuru+FdMkm6RYUHIOnR7i6KbBWBMd+4S5aSivU1Z1Ttwj+yxU2gnaFRJ+L5lZs2bydESyvdPeIHoOqqno2DqvGFa4or2GrKo/Z4oNCjtOeT3TUVkZwJOb5tsRdWF5eFjpLdbZ4Q0PT2r5AS0ubkNMWixWRES+yW4NulPj4nXj4UAwAqgGUkgTo1NQ0tz/cbPFbQyMw+MfCzTUE6QcOcRu0KTQ2mhETHY+4LTvQ0d5l+zPX5/T0DFvOoijat/ctPHrEpc6+zA0AraWkpb3zeGfIayNKS6v4rf6jQVxf0WWnubl5HEg7CA+3ULjqgllDJuIINwBkZHBgCIEBprWtsYyMw2hr68Td8QnMzlphscz+D7GCXuL+/TlQSvy3Dn3Hitu3x9BwtglJ23bB3S2U1aN9ezOxvPyXyPuLL05ebv2OEaZt+0PUDEVGvMQq++ZNr8BeQosa1HFSF0ihv2N7Cu4J7ArZ0BKKAJsybWikvJHB1lWomFExsvfmKC1L0poctb/FRR9iYeEPmztCn+sCwGbx2rXrKP28EoWFx5GbU4S8vGLlJbcYeblFeP+9T1Bbew5jCjVhigBgA+JJ/JQAPIm/mpI+/w1wrQ+xuK7IqgAAAABJRU5ErkJggg==;" vertex="1" parent="1">
          <mxGeometry x="510" y="780" width="64" height="68" as="geometry" />
        </mxCell>
        <mxCell id="pVb0jdcSb9yrTqbo0Daq-10" style="edgeStyle=orthogonalEdgeStyle;rounded=0;orthogonalLoop=1;jettySize=auto;html=1;strokeColor=default;curved=1;endArrow=none;endFill=0;exitX=0.5;exitY=1;exitDx=0;exitDy=0;" edge="1" parent="1" source="kKnEaFU982FH7cg9OtYn-8" target="kKnEaFU982FH7cg9OtYn-6">
          <mxGeometry relative="1" as="geometry">
            <mxPoint x="594" y="432" as="sourcePoint" />
            <mxPoint x="850" y="463" as="targetPoint" />
          </mxGeometry>
        </mxCell>
        <mxCell id="pVb0jdcSb9yrTqbo0Daq-11" style="edgeStyle=orthogonalEdgeStyle;rounded=0;orthogonalLoop=1;jettySize=auto;html=1;strokeColor=default;curved=1;endArrow=none;endFill=0;exitX=0;exitY=0.5;exitDx=0;exitDy=0;" edge="1" parent="1" source="pVb0jdcSb9yrTqbo0Daq-5" target="pVb0jdcSb9yrTqbo0Daq-9">
          <mxGeometry relative="1" as="geometry">
            <mxPoint x="562" y="464" as="sourcePoint" />
            <mxPoint x="532" y="530" as="targetPoint" />
          </mxGeometry>
        </mxCell>
        <mxCell id="pVb0jdcSb9yrTqbo0Daq-12" style="edgeStyle=orthogonalEdgeStyle;rounded=0;orthogonalLoop=1;jettySize=auto;html=1;strokeColor=default;curved=1;endArrow=none;endFill=0;" edge="1" parent="1" source="kKnEaFU982FH7cg9OtYn-6" target="pVb0jdcSb9yrTqbo0Daq-5">
          <mxGeometry relative="1" as="geometry">
            <mxPoint x="594" y="432" as="sourcePoint" />
            <mxPoint x="850" y="463" as="targetPoint" />
          </mxGeometry>
        </mxCell>
        <mxCell id="pVb0jdcSb9yrTqbo0Daq-13" style="edgeStyle=orthogonalEdgeStyle;rounded=0;orthogonalLoop=1;jettySize=auto;html=1;strokeColor=default;curved=1;endArrow=none;endFill=0;" edge="1" parent="1" source="kKnEaFU982FH7cg9OtYn-13" target="kKnEaFU982FH7cg9OtYn-6">
          <mxGeometry relative="1" as="geometry">
            <mxPoint x="564" y="563" as="sourcePoint" />
            <mxPoint x="762" y="660" as="targetPoint" />
          </mxGeometry>
        </mxCell>
        <mxCell id="pVb0jdcSb9yrTqbo0Daq-14" value="" style="shape=image;verticalLabelPosition=bottom;labelBackgroundColor=default;verticalAlign=top;aspect=fixed;imageAspect=0;image=data:image/png,iVBORw0KGgoAAAANSUhEUgAAAEAAAABDCAYAAAAs/QNwAAAJ6ElEQVR4Ae2b9csUXRTH/bfs7k7sbgxsMbHFbrEQ/EEwsQuxE+MHE7sbu/PI5/CeZZ/dmb13Zmd55Xn2wjD7zNw453v63nnKSRlv5co4/1IEoKgBZRyBogmUcQUoOsF/zgS+ffsmx44dkw0bNsjy5ctl1qxZMn/+fFm3bp0cPXpUnj59mqjS/lMA/PnzRxmuWLGiVK9eXapVq6Z3fnPVrFlTWrRoIaNHj5YDBw7Iz58/8wajYAD8+vVLXrx4IY8ePZKHDx/K8+fP5cePHzkJZkz79u2ldu3a0qRJE2ncuLE0atRI7/zN1bBhQwUCQPr16yfnzp3LOafrZaIAwOTOnTtl5syZ0rdvX2ndurUSDeGtWrWSXr16yeTJk2Xr1q3y4MGDQNoWLlwoFSpUUOnXrVtXAahXr55qQI0aNaR+/fqpOWvVqiV16tSR1atXC9oTpyUCwIULF2TKlCnSsmVLJRxCIb5BgwbKAFJEcjzjHaoNKOPHj5czZ86UoBstOH78uOzfv1+le+PGDbl48aL+vWDBAmnXrp3OARBNmzbVeStXriwzZsyIBUJeALx//15mz56tKotKwjCMoboQiHSQkkmKZ7wzVQYM3k2fPl1ev35dAoiwP+i3ZcsWadOmjQJh61WpUkUAKGqLDcD169ele/fuUrVqVZUy0gAAgMCGO3ToIAMHDpRx48bJhAkTZNCgQdK5c2fVAgOLMQDCHJ06dZJLly550080YG7TJuYBhO3bt3vPQcdYAJw/f16liFc2JmAKD71o0SI5ffq0vHv3LouQDx8+CGOXLVumEoR4zIM5AA0AT5w4kTUu7AFOFRBYmznQsObNm8uTJ0/ChmQ9jwzA7du3lVEIZlGIRo2xwTDHlrWqiMbzxYsXq0bgG5gLk0GS165dCxoS+OzLly/qcKGBOdCmefPmBfYNehgJgE+fPqknN8mDOB56x44dQXN7PTt58qRqA8zDAIxgKm/fvvUaTydMB1rQJgSCJhKRfFokAJAYCEMoXh0tIGvLt928eVNVFzBNimSAURr9MQWcIqa1adMmr+HeABCOINASE7Rg8+bNXov4dCLNNRNgDTSB8Ofbzp49q2MwIWjDN/g0bwAIMSCLhEB64sSJPvNH6oPt2hqESPIE34Z5YjpmlkSo79+/O4d7AYBHJwFhclQfNbt3755z8qgdCG3YL3bMOkgzimMdOnSomiVjScqePXvmJMELANQTicA4d1LdQjXCaBxbhh7SbNQfE+LyEZIXAMRtVNMAOHToUKH4F2wZ54r0AXvSpEneayEYxsA8WnD37l3nWCcAFBnDhw9XB4Nqolq+Ica5ekAH0mszN/KDPn36eJe9+CU0AOabNWumlWjAEiUeOQEg0ejatatGAKIAv9m0KFSjGKLMtWIKMADF1XB4PXv21HH4qo4dOwqZp6s5ATCJIH3CFDl93NLTRYy9HzlyZErjKKlfvnxpr0LvV65cUSFhOoTQESNGhPZNf+EE4OPHj4omqAIABU6hAcDkrDag6vOpFEnSrCYgWVu/fn06n6G/nQBQcLCRgUpiAl26dJGvX7+GTpjvC7a5bD1Ap0r8/PlzzmnZdcLmLXziBO/fv59zjL10AkDHUaNGqVrhXKi2Hj9+bOMTv6Pu7B6ZyaFxv3//Dl0HwDAZvD9JGtFq2rRpof0zX3gBsGTJklRsRs327duXOU9ifx8+fFiZsZDryjnIHlF5+iMgrjt37njT4wUAW1SEFxbhXog02CimrEaarAXYYZUmkWjOnDnaB8dHfzZE2D6P0rwAIM9mh8eKIe6XL1+Oso5XXxIXmEGKmABpcWYEwBwQSP/+/VPMWwXJdnnUrXIvAKB+1apVqVIYLcAvJN3I+tJtOb0kJvLs3btXGSdCcCF1LkxgwIABgbtQLhq9AUASZIF4ZlPPNWvWuOb3fr9x48aUnzENSE9lYb5SpUrqjE3luaON+Amfyi+IGG8AGEz9bw6HUIMmcA6Qbzt48GCqikOdseWVK1eWmJYiifMCkzp3AMBUACDukVkkAEhTUX1LOJAUWRfE8i5O4wzQ0l6YxwTI/0nB0xv7hCRFCADgWdvAYAzhOc4GTSQAIIisjHrAQEAT+E2KzG6wb8OJ4rQgHmZgHjDbtm0bugfw6tUr2b17t0YhHCTr2lhME3Dmzp3rPIJLpzEyAAymzgYEK5GRBMQjSZIS9uNu3bolb968Udskm2STk3GENc4JIBxJmhRhhryfrTefxnkjOQAmgEMEQEwCPzF16lTvdD0WABCIJowZMya1j2c2CRAwg2Ygzd69e6tKc+hJH97BOO+NeasxfNPXdIDQJNZgXpsPH0Ly5tNiA2CTs1lim5lGAHcYRDpoBRcqms609UV6SCyfRsFGAmUOGk3g965du5zTxgYAe1y7dq1069YtkDGIQM1hnFAFGADAc2OeO31IsvgYwmcPL4wj8gTLIjEH1mUtV1ocC4A9e/aoeoMyjJn9wShOjYvfPIc5dmuxb/qaiaAVEEgfQGAuiqBt27aF8eh8TiQaPHiwmhjz4qNcaXskAHBqODDszRiECWwaM2ArmpiMp7569ap6c5wfKop0OQDh7A/7tJIXsNAMCGZOiCY6ZKbATu7/68Aa0ASo3DExju/DmjcAeN0ePXqopExyTA7jeP5Tp05lxe6wRXlO5sZBKRIyzTDTAAS2tNjlidNWrFihQAIqwmK3OKx5AcAmKAQxGZMiMVSWhCXzA4ewhXI9R1uGDBmic5o2YCokN4TTqI2skLFoAeDm2sh1AoDawyiqCvNMiuSXLl3q3KmJQji5Ahklc+PAWAsQ2BGKYw7pZ4UIjloiqOUEgNKTWI+0jXnsnS80CtX4NMbCJmtCPCc+ABSlHTlyRIWGWTEHtURQywkAYQ7mmQTVRCJ84FToxsELWoC2sTY0ECajNLTGIg9aBYhBLRQA0lbsh8uIyKzQgiZM6hnh0FJtwIeJKE4RJ2uRBo3izCBIi0IBYGPRnB5qj6fPtTmZFOPp82TSwF6/b9VJYsSuEVEKbcKXBB2UBALAZzAMAnk0gC3nuPV2OkNRf+OAqSegBS3EEXN26NuGDRum5gMIzEM+ktkCASBRQf1wQtx9C4vMyZP42/yQOcQoW96U5wgP38U8QS0LgMxvAXwPGYMmT+JZujNDG0mXqUN8G+NzHZNnAQBqIIbKYfukvv93o8jBH5kZEOKSalkAEG7M+3LPpzhJiki+DDcAuPM9cVItC4CxY8cqAJZGRvlEJSmiMufhq3N8ACaAVnJcllTLAoBjL7wtO7CcvPwrDVrKly8v/C9BmEOLQ2sWAEzCh4d8FxT1lCUOAb5jOAqjzCZLTDIfCQTAl6jS0K8IQGmQYj48FDUgH/RKw9iiBpQGKebDQ5nXgL/FVHE+DrndvQAAAABJRU5ErkJggg==;" vertex="1" parent="1">
          <mxGeometry x="900" y="730" width="64" height="67" as="geometry" />
        </mxCell>
        <mxCell id="pVb0jdcSb9yrTqbo0Daq-15" style="edgeStyle=orthogonalEdgeStyle;rounded=0;orthogonalLoop=1;jettySize=auto;html=1;strokeColor=default;curved=1;endArrow=none;endFill=0;entryX=0.5;entryY=1;entryDx=0;entryDy=0;" edge="1" parent="1" source="pVb0jdcSb9yrTqbo0Daq-14" target="pVb0jdcSb9yrTqbo0Daq-5">
          <mxGeometry relative="1" as="geometry">
            <mxPoint x="850" y="463" as="sourcePoint" />
            <mxPoint x="762" y="660" as="targetPoint" />
          </mxGeometry>
        </mxCell>
        <mxCell id="pVb0jdcSb9yrTqbo0Daq-16" value="" style="shape=image;verticalLabelPosition=bottom;labelBackgroundColor=default;verticalAlign=top;aspect=fixed;imageAspect=0;image=data:image/png,iVBORw0KGgoAAAANSUhEUgAAAEAAAAA4CAYAAABNGP5yAAAF70lEQVRoBe1a2UscTxDOv6Ag+mI0Go3xiEdEVBRCggeiBsXjxSMkXqCgGGLAaIiCCKKCD+KFkuQlioqg4IEvHvgigSgJ3oJ44hElxiTGq358za9lZ0Z3J7vO6ug2FLMzs9Nd9U1X9VfVc4tueLt1w+0nEwCmGXAJCOzu7tKrV68oIyODsrKy6NmzZ9Ta2noJmtDluMD29jb5+PjQnTt3yNHRkSwsLKi0tPTmALCzs0OPHz+mBw8e0MOHD8ne3p4qKytNAFwGAjpXgbW1NZqYmGAyOTlJ+sq3b99oZWWF2ahtBvz9+5empqYMHg86z87O0t7enlZczwVgfHycEhMTyc/Pjzw9PQ0WOzs7evPmjU4AlpaWWHxwc3MzaEwPDw/mXnC1srIy2t/fPxOIMwEYGBggd3d3unv3LjteBAAIeAUFBToBWF5evhAAoDNAcHV1pdu3b1Nqair9/v1bAoIEACxRQUFBdO/ePfL29mYoIlAZKgCzsLBQFgC+vr4MeEPH1Hze2tqaamtrdQMwODhIDg4O5OXlxYwGCFiqMIUNEXNzc8rNzWUKYBlE/1AKfZqZmVFJSQm7t7i4SE5OTuytGTIenoUb8Zd4//59io2NpePjYwEIkhnQ3t7OliWgByXhClDu/fv3BkldXR0NDw+zweGPnz59oqamJtYn7o2OjrJ7mIEfP348vWfIuPHx8cwFYAvACA4Opj9//sgHAH7k4uJC09PTgofUcoKYA9fjAISEhEjigNYZAAAQRD5//qwWmwV65uXlMXc2AfC/C6hiBiBIHR4e/rMcHR0J3j5OVDkDVldXWbSOjIykqKgoWYI3+/bt2+sBAJggCAyWXgRgOQKi8/z586sBwMnJCfX19bH0FstnV1cXgd/LbWCC/0qEQNpQWxA3o7sACM6LFy8khCk6OprwZuU0ECFnZ2eytbVlERykTJdYWVlRUlKSpHujAoDAlZKSQjY2NqcsEssPBMaAlJzFxcVab25uUn5+PqsYvX79muRIdnY21dfXi7sybhAEhQbp4BSaG8+PSIY6OjokSip5wagzoKqqik19brD4iKpPUVGRkvZK+r5yALx7906ipJIXjAqALhdAdnatXQBBEGsx1mRxHID/g9TICYJbW1sseOXk5NDLly9lSWZmJtXU1Egmk1FnAEaH8qi8wN95Lo/fMH5mZkai4FkX+DII0HQtf/z+lVgGNY3p7++niooKVovr7u6+OURIEwR9f4MwIQ1HVQipuBwBzwABEzejuwBXAL4OdwCp+fXrF78s64hkCIkQqjdhYWGy5NGjR4wwiQcwGgAwtqenh4qLi9k+X2hoKAUGBjJBpobyOjgA8oL19XWxnoJzpMMA8F9FXOpCp4oD8PPnTyovL2eGIiAh4PGpi20vCGpxuAaWCPH392dg4E0r3RQFADtE4eHhjOfDSDHzO+8coCDCBwQEKF5qUwwAvPmnT5+ypY6Xnc8z+KzrvNT+5MkTFiuUmgmKAfD161dWqBATnrOM1XYNbjMyMiKw/8ePH9TY2EgolTc0NMiS6upq6uzsFPSDE8UAGBsbYyQFvo3cXR/BRgVY49DQkEBxECHcQ1rN44auo6WlJSUkJAj6URQA7N6C3cXExFBcXJxegl2aiIgI+vLli0BxVVSEUPa6KBFYT0T6bI7CldLS0sRdKecCkpEu8IK+AKSnp0u0UCwGSEa6wAsHBwc0Pz9Pc3NzsgWJFv/4QlMVVQKgaYChv00AXNTeIL7vUWNDdRlLKLgI2KqsvcG2tjbB9wGgri0tLYRvhrBkqUWgLwIjuAoHABmmuCol2R7v7e09RY2zOHwkwRMbIKkGgb6oK3AbQNaQZqN0p9kkAGxsbLAvw1CI4A+D8qIztQmn6sg9wCz5ZzhaAcDNDx8+sAewMclBUOsRLw3ZJz78wjeP4iaZAfwPzc3NLGUFy8JOrRoFumPqJycn08LCAjdNcDwXAPzr+/fvLFlBYRMVHzUJdEY8Q+aqrWkFQNuD1+WeCYDr8ib1tcM0A/RF7ro89x+fEbmlnZV2JwAAAABJRU5ErkJggg==;" vertex="1" parent="1">
          <mxGeometry x="1209" y="420" width="64" height="56" as="geometry" />
        </mxCell>
        <mxCell id="pVb0jdcSb9yrTqbo0Daq-17" value="" style="shape=image;verticalLabelPosition=bottom;labelBackgroundColor=default;verticalAlign=top;aspect=fixed;imageAspect=0;image=data:image/png,iVBORw0KGgoAAAANSUhEUgAAAEAAAAA4CAYAAABNGP5yAAAF70lEQVRoBe1a2UscTxDOv6Ag+mI0Go3xiEdEVBRCggeiBsXjxSMkXqCgGGLAaIiCCKKCD+KFkuQlioqg4IEvHvgigSgJ3oJ44hElxiTGq358za9lZ0Z3J7vO6ug2FLMzs9Nd9U1X9VfVc4tueLt1w+0nEwCmGXAJCOzu7tKrV68oIyODsrKy6NmzZ9Ta2noJmtDluMD29jb5+PjQnTt3yNHRkSwsLKi0tPTmALCzs0OPHz+mBw8e0MOHD8ne3p4qKytNAFwGAjpXgbW1NZqYmGAyOTlJ+sq3b99oZWWF2ahtBvz9+5empqYMHg86z87O0t7enlZczwVgfHycEhMTyc/Pjzw9PQ0WOzs7evPmjU4AlpaWWHxwc3MzaEwPDw/mXnC1srIy2t/fPxOIMwEYGBggd3d3unv3LjteBAAIeAUFBToBWF5evhAAoDNAcHV1pdu3b1Nqair9/v1bAoIEACxRQUFBdO/ePfL29mYoIlAZKgCzsLBQFgC+vr4MeEPH1Hze2tqaamtrdQMwODhIDg4O5OXlxYwGCFiqMIUNEXNzc8rNzWUKYBlE/1AKfZqZmVFJSQm7t7i4SE5OTuytGTIenoUb8Zd4//59io2NpePjYwEIkhnQ3t7OliWgByXhClDu/fv3BkldXR0NDw+zweGPnz59oqamJtYn7o2OjrJ7mIEfP348vWfIuPHx8cwFYAvACA4Opj9//sgHAH7k4uJC09PTgofUcoKYA9fjAISEhEjigNYZAAAQRD5//qwWmwV65uXlMXc2AfC/C6hiBiBIHR4e/rMcHR0J3j5OVDkDVldXWbSOjIykqKgoWYI3+/bt2+sBAJggCAyWXgRgOQKi8/z586sBwMnJCfX19bH0FstnV1cXgd/LbWCC/0qEQNpQWxA3o7sACM6LFy8khCk6OprwZuU0ECFnZ2eytbVlERykTJdYWVlRUlKSpHujAoDAlZKSQjY2NqcsEssPBMaAlJzFxcVab25uUn5+PqsYvX79muRIdnY21dfXi7sybhAEhQbp4BSaG8+PSIY6OjokSip5wagzoKqqik19brD4iKpPUVGRkvZK+r5yALx7906ipJIXjAqALhdAdnatXQBBEGsx1mRxHID/g9TICYJbW1sseOXk5NDLly9lSWZmJtXU1Egmk1FnAEaH8qi8wN95Lo/fMH5mZkai4FkX+DII0HQtf/z+lVgGNY3p7++niooKVovr7u6+OURIEwR9f4MwIQ1HVQipuBwBzwABEzejuwBXAL4OdwCp+fXrF78s64hkCIkQqjdhYWGy5NGjR4wwiQcwGgAwtqenh4qLi9k+X2hoKAUGBjJBpobyOjgA8oL19XWxnoJzpMMA8F9FXOpCp4oD8PPnTyovL2eGIiAh4PGpi20vCGpxuAaWCPH392dg4E0r3RQFADtE4eHhjOfDSDHzO+8coCDCBwQEKF5qUwwAvPmnT5+ypY6Xnc8z+KzrvNT+5MkTFiuUmgmKAfD161dWqBATnrOM1XYNbjMyMiKw/8ePH9TY2EgolTc0NMiS6upq6uzsFPSDE8UAGBsbYyQFvo3cXR/BRgVY49DQkEBxECHcQ1rN44auo6WlJSUkJAj6URQA7N6C3cXExFBcXJxegl2aiIgI+vLli0BxVVSEUPa6KBFYT0T6bI7CldLS0sRdKecCkpEu8IK+AKSnp0u0UCwGSEa6wAsHBwc0Pz9Pc3NzsgWJFv/4QlMVVQKgaYChv00AXNTeIL7vUWNDdRlLKLgI2KqsvcG2tjbB9wGgri0tLYRvhrBkqUWgLwIjuAoHABmmuCol2R7v7e09RY2zOHwkwRMbIKkGgb6oK3AbQNaQZqN0p9kkAGxsbLAvw1CI4A+D8qIztQmn6sg9wCz5ZzhaAcDNDx8+sAewMclBUOsRLw3ZJz78wjeP4iaZAfwPzc3NLGUFy8JOrRoFumPqJycn08LCAjdNcDwXAPzr+/fvLFlBYRMVHzUJdEY8Q+aqrWkFQNuD1+WeCYDr8ib1tcM0A/RF7ro89x+fEbmlnZV2JwAAAABJRU5ErkJggg==;" vertex="1" parent="1">
          <mxGeometry x="1520" y="398" width="64" height="56" as="geometry" />
        </mxCell>
        <mxCell id="pVb0jdcSb9yrTqbo0Daq-18" value="" style="shape=image;verticalLabelPosition=bottom;labelBackgroundColor=default;verticalAlign=top;aspect=fixed;imageAspect=0;image=data:image/png,iVBORw0KGgoAAAANSUhEUgAAAEAAAAA4CAYAAABNGP5yAAAF70lEQVRoBe1a2UscTxDOv6Ag+mI0Go3xiEdEVBRCggeiBsXjxSMkXqCgGGLAaIiCCKKCD+KFkuQlioqg4IEvHvgigSgJ3oJ44hElxiTGq358za9lZ0Z3J7vO6ug2FLMzs9Nd9U1X9VfVc4tueLt1w+0nEwCmGXAJCOzu7tKrV68oIyODsrKy6NmzZ9Ta2noJmtDluMD29jb5+PjQnTt3yNHRkSwsLKi0tPTmALCzs0OPHz+mBw8e0MOHD8ne3p4qKytNAFwGAjpXgbW1NZqYmGAyOTlJ+sq3b99oZWWF2ahtBvz9+5empqYMHg86z87O0t7enlZczwVgfHycEhMTyc/Pjzw9PQ0WOzs7evPmjU4AlpaWWHxwc3MzaEwPDw/mXnC1srIy2t/fPxOIMwEYGBggd3d3unv3LjteBAAIeAUFBToBWF5evhAAoDNAcHV1pdu3b1Nqair9/v1bAoIEACxRQUFBdO/ePfL29mYoIlAZKgCzsLBQFgC+vr4MeEPH1Hze2tqaamtrdQMwODhIDg4O5OXlxYwGCFiqMIUNEXNzc8rNzWUKYBlE/1AKfZqZmVFJSQm7t7i4SE5OTuytGTIenoUb8Zd4//59io2NpePjYwEIkhnQ3t7OliWgByXhClDu/fv3BkldXR0NDw+zweGPnz59oqamJtYn7o2OjrJ7mIEfP348vWfIuPHx8cwFYAvACA4Opj9//sgHAH7k4uJC09PTgofUcoKYA9fjAISEhEjigNYZAAAQRD5//qwWmwV65uXlMXc2AfC/C6hiBiBIHR4e/rMcHR0J3j5OVDkDVldXWbSOjIykqKgoWYI3+/bt2+sBAJggCAyWXgRgOQKi8/z586sBwMnJCfX19bH0FstnV1cXgd/LbWCC/0qEQNpQWxA3o7sACM6LFy8khCk6OprwZuU0ECFnZ2eytbVlERykTJdYWVlRUlKSpHujAoDAlZKSQjY2NqcsEssPBMaAlJzFxcVab25uUn5+PqsYvX79muRIdnY21dfXi7sybhAEhQbp4BSaG8+PSIY6OjokSip5wagzoKqqik19brD4iKpPUVGRkvZK+r5yALx7906ipJIXjAqALhdAdnatXQBBEGsx1mRxHID/g9TICYJbW1sseOXk5NDLly9lSWZmJtXU1Egmk1FnAEaH8qi8wN95Lo/fMH5mZkai4FkX+DII0HQtf/z+lVgGNY3p7++niooKVovr7u6+OURIEwR9f4MwIQ1HVQipuBwBzwABEzejuwBXAL4OdwCp+fXrF78s64hkCIkQqjdhYWGy5NGjR4wwiQcwGgAwtqenh4qLi9k+X2hoKAUGBjJBpobyOjgA8oL19XWxnoJzpMMA8F9FXOpCp4oD8PPnTyovL2eGIiAh4PGpi20vCGpxuAaWCPH392dg4E0r3RQFADtE4eHhjOfDSDHzO+8coCDCBwQEKF5qUwwAvPmnT5+ypY6Xnc8z+KzrvNT+5MkTFiuUmgmKAfD161dWqBATnrOM1XYNbjMyMiKw/8ePH9TY2EgolTc0NMiS6upq6uzsFPSDE8UAGBsbYyQFvo3cXR/BRgVY49DQkEBxECHcQ1rN44auo6WlJSUkJAj6URQA7N6C3cXExFBcXJxegl2aiIgI+vLli0BxVVSEUPa6KBFYT0T6bI7CldLS0sRdKecCkpEu8IK+AKSnp0u0UCwGSEa6wAsHBwc0Pz9Pc3NzsgWJFv/4QlMVVQKgaYChv00AXNTeIL7vUWNDdRlLKLgI2KqsvcG2tjbB9wGgri0tLYRvhrBkqUWgLwIjuAoHABmmuCol2R7v7e09RY2zOHwkwRMbIKkGgb6oK3AbQNaQZqN0p9kkAGxsbLAvw1CI4A+D8qIztQmn6sg9wCz5ZzhaAcDNDx8+sAewMclBUOsRLw3ZJz78wjeP4iaZAfwPzc3NLGUFy8JOrRoFumPqJycn08LCAjdNcDwXAPzr+/fvLFlBYRMVHzUJdEY8Q+aqrWkFQNuD1+WeCYDr8ib1tcM0A/RF7ro89x+fEbmlnZV2JwAAAABJRU5ErkJggg==;" vertex="1" parent="1">
          <mxGeometry x="1380" y="559" width="64" height="56" as="geometry" />
        </mxCell>
        <mxCell id="pVb0jdcSb9yrTqbo0Daq-19" value="" style="shape=image;verticalLabelPosition=bottom;labelBackgroundColor=default;verticalAlign=top;aspect=fixed;imageAspect=0;image=data:image/png,iVBORw0KGgoAAAANSUhEUgAAAEAAAABDCAYAAAAs/QNwAAAJ6ElEQVR4Ae2b9csUXRTH/bfs7k7sbgxsMbHFbrEQ/EEwsQuxE+MHE7sbu/PI5/CeZZ/dmb13Zmd55Xn2wjD7zNw453v63nnKSRlv5co4/1IEoKgBZRyBogmUcQUoOsF/zgS+ffsmx44dkw0bNsjy5ctl1qxZMn/+fFm3bp0cPXpUnj59mqjS/lMA/PnzRxmuWLGiVK9eXapVq6Z3fnPVrFlTWrRoIaNHj5YDBw7Iz58/8wajYAD8+vVLXrx4IY8ePZKHDx/K8+fP5cePHzkJZkz79u2ldu3a0qRJE2ncuLE0atRI7/zN1bBhQwUCQPr16yfnzp3LOafrZaIAwOTOnTtl5syZ0rdvX2ndurUSDeGtWrWSXr16yeTJk2Xr1q3y4MGDQNoWLlwoFSpUUOnXrVtXAahXr55qQI0aNaR+/fqpOWvVqiV16tSR1atXC9oTpyUCwIULF2TKlCnSsmVLJRxCIb5BgwbKAFJEcjzjHaoNKOPHj5czZ86UoBstOH78uOzfv1+le+PGDbl48aL+vWDBAmnXrp3OARBNmzbVeStXriwzZsyIBUJeALx//15mz56tKotKwjCMoboQiHSQkkmKZ7wzVQYM3k2fPl1ev35dAoiwP+i3ZcsWadOmjQJh61WpUkUAKGqLDcD169ele/fuUrVqVZUy0gAAgMCGO3ToIAMHDpRx48bJhAkTZNCgQdK5c2fVAgOLMQDCHJ06dZJLly550080YG7TJuYBhO3bt3vPQcdYAJw/f16liFc2JmAKD71o0SI5ffq0vHv3LouQDx8+CGOXLVumEoR4zIM5AA0AT5w4kTUu7AFOFRBYmznQsObNm8uTJ0/ChmQ9jwzA7du3lVEIZlGIRo2xwTDHlrWqiMbzxYsXq0bgG5gLk0GS165dCxoS+OzLly/qcKGBOdCmefPmBfYNehgJgE+fPqknN8mDOB56x44dQXN7PTt58qRqA8zDAIxgKm/fvvUaTydMB1rQJgSCJhKRfFokAJAYCEMoXh0tIGvLt928eVNVFzBNimSAURr9MQWcIqa1adMmr+HeABCOINASE7Rg8+bNXov4dCLNNRNgDTSB8Ofbzp49q2MwIWjDN/g0bwAIMSCLhEB64sSJPvNH6oPt2hqESPIE34Z5YjpmlkSo79+/O4d7AYBHJwFhclQfNbt3755z8qgdCG3YL3bMOkgzimMdOnSomiVjScqePXvmJMELANQTicA4d1LdQjXCaBxbhh7SbNQfE+LyEZIXAMRtVNMAOHToUKH4F2wZ54r0AXvSpEneayEYxsA8WnD37l3nWCcAFBnDhw9XB4Nqolq+Ica5ekAH0mszN/KDPn36eJe9+CU0AOabNWumlWjAEiUeOQEg0ejatatGAKIAv9m0KFSjGKLMtWIKMADF1XB4PXv21HH4qo4dOwqZp6s5ATCJIH3CFDl93NLTRYy9HzlyZErjKKlfvnxpr0LvV65cUSFhOoTQESNGhPZNf+EE4OPHj4omqAIABU6hAcDkrDag6vOpFEnSrCYgWVu/fn06n6G/nQBQcLCRgUpiAl26dJGvX7+GTpjvC7a5bD1Ap0r8/PlzzmnZdcLmLXziBO/fv59zjL10AkDHUaNGqVrhXKi2Hj9+bOMTv6Pu7B6ZyaFxv3//Dl0HwDAZvD9JGtFq2rRpof0zX3gBsGTJklRsRs327duXOU9ifx8+fFiZsZDryjnIHlF5+iMgrjt37njT4wUAW1SEFxbhXog02CimrEaarAXYYZUmkWjOnDnaB8dHfzZE2D6P0rwAIM9mh8eKIe6XL1+Oso5XXxIXmEGKmABpcWYEwBwQSP/+/VPMWwXJdnnUrXIvAKB+1apVqVIYLcAvJN3I+tJtOb0kJvLs3btXGSdCcCF1LkxgwIABgbtQLhq9AUASZIF4ZlPPNWvWuOb3fr9x48aUnzENSE9lYb5SpUrqjE3luaON+Amfyi+IGG8AGEz9bw6HUIMmcA6Qbzt48GCqikOdseWVK1eWmJYiifMCkzp3AMBUACDukVkkAEhTUX1LOJAUWRfE8i5O4wzQ0l6YxwTI/0nB0xv7hCRFCADgWdvAYAzhOc4GTSQAIIisjHrAQEAT+E2KzG6wb8OJ4rQgHmZgHjDbtm0bugfw6tUr2b17t0YhHCTr2lhME3Dmzp3rPIJLpzEyAAymzgYEK5GRBMQjSZIS9uNu3bolb968Udskm2STk3GENc4JIBxJmhRhhryfrTefxnkjOQAmgEMEQEwCPzF16lTvdD0WABCIJowZMya1j2c2CRAwg2Ygzd69e6tKc+hJH97BOO+NeasxfNPXdIDQJNZgXpsPH0Ly5tNiA2CTs1lim5lGAHcYRDpoBRcqms609UV6SCyfRsFGAmUOGk3g965du5zTxgYAe1y7dq1069YtkDGIQM1hnFAFGADAc2OeO31IsvgYwmcPL4wj8gTLIjEH1mUtV1ocC4A9e/aoeoMyjJn9wShOjYvfPIc5dmuxb/qaiaAVEEgfQGAuiqBt27aF8eh8TiQaPHiwmhjz4qNcaXskAHBqODDszRiECWwaM2ArmpiMp7569ap6c5wfKop0OQDh7A/7tJIXsNAMCGZOiCY6ZKbATu7/68Aa0ASo3DExju/DmjcAeN0ePXqopExyTA7jeP5Tp05lxe6wRXlO5sZBKRIyzTDTAAS2tNjlidNWrFihQAIqwmK3OKx5AcAmKAQxGZMiMVSWhCXzA4ewhXI9R1uGDBmic5o2YCokN4TTqI2skLFoAeDm2sh1AoDawyiqCvNMiuSXLl3q3KmJQji5Ahklc+PAWAsQ2BGKYw7pZ4UIjloiqOUEgNKTWI+0jXnsnS80CtX4NMbCJmtCPCc+ABSlHTlyRIWGWTEHtURQywkAYQ7mmQTVRCJ84FToxsELWoC2sTY0ECajNLTGIg9aBYhBLRQA0lbsh8uIyKzQgiZM6hnh0FJtwIeJKE4RJ2uRBo3izCBIi0IBYGPRnB5qj6fPtTmZFOPp82TSwF6/b9VJYsSuEVEKbcKXBB2UBALAZzAMAnk0gC3nuPV2OkNRf+OAqSegBS3EEXN26NuGDRum5gMIzEM+ktkCASBRQf1wQtx9C4vMyZP42/yQOcQoW96U5wgP38U8QS0LgMxvAXwPGYMmT+JZujNDG0mXqUN8G+NzHZNnAQBqIIbKYfukvv93o8jBH5kZEOKSalkAEG7M+3LPpzhJiki+DDcAuPM9cVItC4CxY8cqAJZGRvlEJSmiMufhq3N8ACaAVnJcllTLAoBjL7wtO7CcvPwrDVrKly8v/C9BmEOLQ2sWAEzCh4d8FxT1lCUOAb5jOAqjzCZLTDIfCQTAl6jS0K8IQGmQYj48FDUgH/RKw9iiBpQGKebDQ5nXgL/FVHE+DrndvQAAAABJRU5ErkJggg==;" vertex="1" parent="1">
          <mxGeometry x="1390" y="750" width="64" height="67" as="geometry" />
        </mxCell>
        <mxCell id="pVb0jdcSb9yrTqbo0Daq-20" value="" style="shape=image;verticalLabelPosition=bottom;labelBackgroundColor=default;verticalAlign=top;aspect=fixed;imageAspect=0;image=data:image/png,iVBORw0KGgoAAAANSUhEUgAAAEAAAABDCAYAAAAs/QNwAAAJ6ElEQVR4Ae2b9csUXRTH/bfs7k7sbgxsMbHFbrEQ/EEwsQuxE+MHE7sbu/PI5/CeZZ/dmb13Zmd55Xn2wjD7zNw453v63nnKSRlv5co4/1IEoKgBZRyBogmUcQUoOsF/zgS+ffsmx44dkw0bNsjy5ctl1qxZMn/+fFm3bp0cPXpUnj59mqjS/lMA/PnzRxmuWLGiVK9eXapVq6Z3fnPVrFlTWrRoIaNHj5YDBw7Iz58/8wajYAD8+vVLXrx4IY8ePZKHDx/K8+fP5cePHzkJZkz79u2ldu3a0qRJE2ncuLE0atRI7/zN1bBhQwUCQPr16yfnzp3LOafrZaIAwOTOnTtl5syZ0rdvX2ndurUSDeGtWrWSXr16yeTJk2Xr1q3y4MGDQNoWLlwoFSpUUOnXrVtXAahXr55qQI0aNaR+/fqpOWvVqiV16tSR1atXC9oTpyUCwIULF2TKlCnSsmVLJRxCIb5BgwbKAFJEcjzjHaoNKOPHj5czZ86UoBstOH78uOzfv1+le+PGDbl48aL+vWDBAmnXrp3OARBNmzbVeStXriwzZsyIBUJeALx//15mz56tKotKwjCMoboQiHSQkkmKZ7wzVQYM3k2fPl1ev35dAoiwP+i3ZcsWadOmjQJh61WpUkUAKGqLDcD169ele/fuUrVqVZUy0gAAgMCGO3ToIAMHDpRx48bJhAkTZNCgQdK5c2fVAgOLMQDCHJ06dZJLly550080YG7TJuYBhO3bt3vPQcdYAJw/f16liFc2JmAKD71o0SI5ffq0vHv3LouQDx8+CGOXLVumEoR4zIM5AA0AT5w4kTUu7AFOFRBYmznQsObNm8uTJ0/ChmQ9jwzA7du3lVEIZlGIRo2xwTDHlrWqiMbzxYsXq0bgG5gLk0GS165dCxoS+OzLly/qcKGBOdCmefPmBfYNehgJgE+fPqknN8mDOB56x44dQXN7PTt58qRqA8zDAIxgKm/fvvUaTydMB1rQJgSCJhKRfFokAJAYCEMoXh0tIGvLt928eVNVFzBNimSAURr9MQWcIqa1adMmr+HeABCOINASE7Rg8+bNXov4dCLNNRNgDTSB8Ofbzp49q2MwIWjDN/g0bwAIMSCLhEB64sSJPvNH6oPt2hqESPIE34Z5YjpmlkSo79+/O4d7AYBHJwFhclQfNbt3755z8qgdCG3YL3bMOkgzimMdOnSomiVjScqePXvmJMELANQTicA4d1LdQjXCaBxbhh7SbNQfE+LyEZIXAMRtVNMAOHToUKH4F2wZ54r0AXvSpEneayEYxsA8WnD37l3nWCcAFBnDhw9XB4Nqolq+Ica5ekAH0mszN/KDPn36eJe9+CU0AOabNWumlWjAEiUeOQEg0ejatatGAKIAv9m0KFSjGKLMtWIKMADF1XB4PXv21HH4qo4dOwqZp6s5ATCJIH3CFDl93NLTRYy9HzlyZErjKKlfvnxpr0LvV65cUSFhOoTQESNGhPZNf+EE4OPHj4omqAIABU6hAcDkrDag6vOpFEnSrCYgWVu/fn06n6G/nQBQcLCRgUpiAl26dJGvX7+GTpjvC7a5bD1Ap0r8/PlzzmnZdcLmLXziBO/fv59zjL10AkDHUaNGqVrhXKi2Hj9+bOMTv6Pu7B6ZyaFxv3//Dl0HwDAZvD9JGtFq2rRpof0zX3gBsGTJklRsRs327duXOU9ifx8+fFiZsZDryjnIHlF5+iMgrjt37njT4wUAW1SEFxbhXog02CimrEaarAXYYZUmkWjOnDnaB8dHfzZE2D6P0rwAIM9mh8eKIe6XL1+Oso5XXxIXmEGKmABpcWYEwBwQSP/+/VPMWwXJdnnUrXIvAKB+1apVqVIYLcAvJN3I+tJtOb0kJvLs3btXGSdCcCF1LkxgwIABgbtQLhq9AUASZIF4ZlPPNWvWuOb3fr9x48aUnzENSE9lYb5SpUrqjE3luaON+Amfyi+IGG8AGEz9bw6HUIMmcA6Qbzt48GCqikOdseWVK1eWmJYiifMCkzp3AMBUACDukVkkAEhTUX1LOJAUWRfE8i5O4wzQ0l6YxwTI/0nB0xv7hCRFCADgWdvAYAzhOc4GTSQAIIisjHrAQEAT+E2KzG6wb8OJ4rQgHmZgHjDbtm0bugfw6tUr2b17t0YhHCTr2lhME3Dmzp3rPIJLpzEyAAymzgYEK5GRBMQjSZIS9uNu3bolb968Udskm2STk3GENc4JIBxJmhRhhryfrTefxnkjOQAmgEMEQEwCPzF16lTvdD0WABCIJowZMya1j2c2CRAwg2Ygzd69e6tKc+hJH97BOO+NeasxfNPXdIDQJNZgXpsPH0Ly5tNiA2CTs1lim5lGAHcYRDpoBRcqms609UV6SCyfRsFGAmUOGk3g965du5zTxgYAe1y7dq1069YtkDGIQM1hnFAFGADAc2OeO31IsvgYwmcPL4wj8gTLIjEH1mUtV1ocC4A9e/aoeoMyjJn9wShOjYvfPIc5dmuxb/qaiaAVEEgfQGAuiqBt27aF8eh8TiQaPHiwmhjz4qNcaXskAHBqODDszRiECWwaM2ArmpiMp7569ap6c5wfKop0OQDh7A/7tJIXsNAMCGZOiCY6ZKbATu7/68Aa0ASo3DExju/DmjcAeN0ePXqopExyTA7jeP5Tp05lxe6wRXlO5sZBKRIyzTDTAAS2tNjlidNWrFihQAIqwmK3OKx5AcAmKAQxGZMiMVSWhCXzA4ewhXI9R1uGDBmic5o2YCokN4TTqI2skLFoAeDm2sh1AoDawyiqCvNMiuSXLl3q3KmJQji5Ahklc+PAWAsQ2BGKYw7pZ4UIjloiqOUEgNKTWI+0jXnsnS80CtX4NMbCJmtCPCc+ABSlHTlyRIWGWTEHtURQywkAYQ7mmQTVRCJ84FToxsELWoC2sTY0ECajNLTGIg9aBYhBLRQA0lbsh8uIyKzQgiZM6hnh0FJtwIeJKE4RJ2uRBo3izCBIi0IBYGPRnB5qj6fPtTmZFOPp82TSwF6/b9VJYsSuEVEKbcKXBB2UBALAZzAMAnk0gC3nuPV2OkNRf+OAqSegBS3EEXN26NuGDRum5gMIzEM+ktkCASBRQf1wQtx9C4vMyZP42/yQOcQoW96U5wgP38U8QS0LgMxvAXwPGYMmT+JZujNDG0mXqUN8G+NzHZNnAQBqIIbKYfukvv93o8jBH5kZEOKSalkAEG7M+3LPpzhJiki+DDcAuPM9cVItC4CxY8cqAJZGRvlEJSmiMufhq3N8ACaAVnJcllTLAoBjL7wtO7CcvPwrDVrKly8v/C9BmEOLQ2sWAEzCh4d8FxT1lCUOAb5jOAqjzCZLTDIfCQTAl6jS0K8IQGmQYj48FDUgH/RKw9iiBpQGKebDQ5nXgL/FVHE+DrndvQAAAABJRU5ErkJggg==;" vertex="1" parent="1">
          <mxGeometry x="1370" y="153" width="64" height="67" as="geometry" />
        </mxCell>
        <mxCell id="pVb0jdcSb9yrTqbo0Daq-21" style="edgeStyle=orthogonalEdgeStyle;rounded=0;orthogonalLoop=1;jettySize=auto;html=1;strokeColor=default;curved=1;endArrow=none;endFill=0;shadow=0;" edge="1" parent="1" source="pVb0jdcSb9yrTqbo0Daq-20" target="pVb0jdcSb9yrTqbo0Daq-16">
          <mxGeometry relative="1" as="geometry">
            <mxPoint x="724" y="258" as="sourcePoint" />
            <mxPoint x="922" y="430" as="targetPoint" />
          </mxGeometry>
        </mxCell>
        <mxCell id="pVb0jdcSb9yrTqbo0Daq-22" style="edgeStyle=orthogonalEdgeStyle;rounded=0;orthogonalLoop=1;jettySize=auto;html=1;strokeColor=default;curved=1;endArrow=none;endFill=0;exitX=1;exitY=0.5;exitDx=0;exitDy=0;entryX=0.5;entryY=0;entryDx=0;entryDy=0;" edge="1" parent="1" source="pVb0jdcSb9yrTqbo0Daq-20" target="pVb0jdcSb9yrTqbo0Daq-17">
          <mxGeometry relative="1" as="geometry">
            <mxPoint x="1380" y="197" as="sourcePoint" />
            <mxPoint x="1251" y="430" as="targetPoint" />
          </mxGeometry>
        </mxCell>
        <mxCell id="pVb0jdcSb9yrTqbo0Daq-23" style="edgeStyle=orthogonalEdgeStyle;rounded=0;orthogonalLoop=1;jettySize=auto;html=1;strokeColor=default;curved=1;endArrow=none;endFill=0;exitX=1;exitY=0.5;exitDx=0;exitDy=0;" edge="1" parent="1" source="pVb0jdcSb9yrTqbo0Daq-16" target="pVb0jdcSb9yrTqbo0Daq-18">
          <mxGeometry relative="1" as="geometry">
            <mxPoint x="1444" y="197" as="sourcePoint" />
            <mxPoint x="1562" y="408" as="targetPoint" />
            <Array as="points">
              <mxPoint x="1370" y="448" />
              <mxPoint x="1370" y="560" />
            </Array>
          </mxGeometry>
        </mxCell>
        <mxCell id="pVb0jdcSb9yrTqbo0Daq-25" style="edgeStyle=orthogonalEdgeStyle;rounded=0;orthogonalLoop=1;jettySize=auto;html=1;strokeColor=default;curved=1;endArrow=none;endFill=0;exitX=0.5;exitY=1;exitDx=0;exitDy=0;entryX=1;entryY=0.5;entryDx=0;entryDy=0;" edge="1" parent="1" source="pVb0jdcSb9yrTqbo0Daq-17" target="pVb0jdcSb9yrTqbo0Daq-18">
          <mxGeometry relative="1" as="geometry">
            <mxPoint x="1444" y="197" as="sourcePoint" />
            <mxPoint x="1562" y="408" as="targetPoint" />
          </mxGeometry>
        </mxCell>
        <mxCell id="pVb0jdcSb9yrTqbo0Daq-26" style="edgeStyle=orthogonalEdgeStyle;rounded=0;orthogonalLoop=1;jettySize=auto;html=1;strokeColor=default;curved=1;endArrow=none;endFill=0;entryX=0.5;entryY=1;entryDx=0;entryDy=0;" edge="1" parent="1" source="pVb0jdcSb9yrTqbo0Daq-19" target="pVb0jdcSb9yrTqbo0Daq-18">
          <mxGeometry relative="1" as="geometry">
            <mxPoint x="1562" y="464" as="sourcePoint" />
            <mxPoint x="1454" y="597" as="targetPoint" />
          </mxGeometry>
        </mxCell>
        <mxCell id="pVb0jdcSb9yrTqbo0Daq-27" style="edgeStyle=orthogonalEdgeStyle;rounded=0;orthogonalLoop=1;jettySize=auto;html=1;strokeColor=default;curved=1;endArrow=none;endFill=0;exitX=0;exitY=0.5;exitDx=0;exitDy=0;entryX=0.5;entryY=1;entryDx=0;entryDy=0;" edge="1" parent="1" source="pVb0jdcSb9yrTqbo0Daq-18" target="pVb0jdcSb9yrTqbo0Daq-16">
          <mxGeometry relative="1" as="geometry">
            <mxPoint x="1380" y="197" as="sourcePoint" />
            <mxPoint x="1251" y="430" as="targetPoint" />
          </mxGeometry>
        </mxCell>
      </root>
    </mxGraphModel>
  </diagram>
</mxfile>
